<svg id="Слой_4" data-name="Слой 4" xmlns="http://www.w3.org/2000/svg" viewBox="0 0 532.67 216.49"><defs><style>.cls-1{fill:#262624;}.cls-2{opacity:0.95;}.cls-3{fill:#414a4c;}.cls-4{fill:#2c3133;}.cls-5,.cls-6{fill:none;stroke:#fff;stroke-linejoin:round;}.cls-5{stroke-width:6.18px;}.cls-6{stroke-width:6.63px;}</style></defs><title>cricket</title><path class="cls-1" d="M1030.59,936.14s-6-18.9-21.35-20c-24.71-1.82-29.29-12.71-40-14.62s-44.57-9.22-44.57-9.22S840.17,868.43,785.53,878s-132.78,58.36-134.06,69.95-6.41,21,14.09,24.17c0,0-1.28,16.5,23.48,20.79,0,0,39.74,69.72,172.58,33.86,0,0,45.64-19.8,76.31-22.47,0,0,9.49,11.1,43.4,4.39a8.19,8.19,0,0,1,5,.64c3.7,1.67,13.4,3.28,34.94-7.18l12-9.62s15.34.17,8.15-14.1c0,0,6.27-13.89-.44-31.55,0,0,2.52-17.32-8.5-8.76" transform="translate(-649.96 -820.5)"/><g class="cls-2"><path class="cls-3" d="M943,926a10.84,10.84,0,0,1-1.63,18.68,304.3,304.3,0,0,1-41.93,15.74l28.2-44.67Q935.32,920.59,943,926Z" transform="translate(-649.96 -820.5)"/><path class="cls-4" d="M927.65,915.74l-28.2,44.67-3.05-62.25A345.32,345.32,0,0,1,927.65,915.74Z" transform="translate(-649.96 -820.5)"/><path class="cls-3" d="M896.38,898.15h0l3.05,62.25h0c-5.55,1.62-11.4,3.17-17.5,4.55,0,0-18.51-50.39-30-53.51h0Z" transform="translate(-649.96 -820.5)"/><path class="cls-3" d="M827.11,873a322.92,322.92,0,0,1,69.27,25.18L852,911.45C852.23,894.77,846.27,879.44,827.11,873Z" transform="translate(-649.96 -820.5)"/><path class="cls-4" d="M820.16,871.4l-45,23.27c3.95-14-26.19-30.19-26.19-30.19A314.21,314.21,0,0,1,820.16,871.4Z" transform="translate(-649.96 -820.5)"/><path class="cls-3" d="M775.11,894.67l45-23.27c3.6,8.2-1.27,26.39-8.62,44.77Z" transform="translate(-649.96 -820.5)"/><path class="cls-4" d="M852,911.46c11.44,3.12,30,53.51,30,53.51l-38.48-15.56C847.85,938.31,851.8,924.47,852,911.46Z" transform="translate(-649.96 -820.5)"/><path class="cls-4" d="M843.46,949.41,881.94,965a256.86,256.86,0,0,1-50.18,6.48C833.27,970.53,838.63,961.62,843.46,949.41Z" transform="translate(-649.96 -820.5)"/><path class="cls-3" d="M748.92,864.48s30.14,16.17,26.19,30.19l-3.89,4.85c-11.92,7.88-45.36,4.22-45.36,4.22S745.86,887.17,748.92,864.48Z" transform="translate(-649.96 -820.5)"/><path class="cls-3" d="M811.54,916.17l.93.56s7.79,36.18,18.94,54.72a212.25,212.25,0,0,1-47.93-4.08C788.07,964.66,801.92,940.25,811.54,916.17Z" transform="translate(-649.96 -820.5)"/><path class="cls-3" d="M775.11,894.67l36.43,21.5c-9.62,24.08-23.47,48.49-28.06,51.2l-1.39-.3h0A106,106,0,0,1,777.51,950h0c-4.87-26.05-2.49-54.18-2.4-55.24A0,0,0,0,1,775.11,894.67Z" transform="translate(-649.96 -820.5)"/><path class="cls-3" d="M843.46,949.41c-4.83,12.21-10.19,21.12-11.7,22h-.35c-11.15-18.54-18.94-54.72-18.94-54.72l-.93-.56c7.35-18.38,12.22-36.57,8.62-44.77q3.47.75,7,1.57c19.16,6.47,25.12,21.8,24.87,38.48h0C851.8,924.47,847.85,938.31,843.46,949.41Z" transform="translate(-649.96 -820.5)"/><path class="cls-4" d="M771.22,899.52a8.76,8.76,0,0,0,3.88-4.82c-.09,1.06-2.47,29.19,2.4,55.24L741.8,936.3Z" transform="translate(-649.96 -820.5)"/><path class="cls-4" d="M771.22,899.52,741.8,936.3l-10,12.57a72.7,72.7,0,0,0-5.89-45.13S759.3,907.4,771.22,899.52Z" transform="translate(-649.96 -820.5)"/><path class="cls-4" d="M748.92,864.48c-3.06,22.69-23.06,39.26-23.06,39.26l-23-35.1A311.86,311.86,0,0,1,748.92,864.48Z" transform="translate(-649.96 -820.5)"/><path class="cls-4" d="M702.9,868.64l23,35.1-54.67-3.32c-2.05-2.32-4.09-4.69-6.11-7.15C665.08,893.27,688.89,906.37,702.9,868.64Z" transform="translate(-649.96 -820.5)"/><path class="cls-4" d="M671.19,900.42l54.67,3.32s-20.27,22.4-32.3,18.87A235.85,235.85,0,0,1,671.19,900.42Z" transform="translate(-649.96 -820.5)"/><path class="cls-3" d="M693.56,922.61c12,3.53,32.3-18.87,32.3-18.87a72.7,72.7,0,0,1,5.89,45.13A205,205,0,0,1,693.56,922.61Z" transform="translate(-649.96 -820.5)"/><path class="cls-4" d="M741.8,936.3l35.7,13.64h0a106,106,0,0,0,4.57,17.11h0a191.52,191.52,0,0,1-50.34-18.2Z" transform="translate(-649.96 -820.5)"/><path class="cls-3" d="M702.9,868.64c-14,37.73-37.82,24.63-37.82,24.63A10.83,10.83,0,0,1,670.43,876,275.82,275.82,0,0,1,702.9,868.64Z" transform="translate(-649.96 -820.5)"/><path class="cls-5" d="M881.94,965a256.86,256.86,0,0,1-50.18,6.48h-.35a212.25,212.25,0,0,1-47.93-4.08l-1.39-.3a191.52,191.52,0,0,1-50.34-18.2,205,205,0,0,1-38.19-26.26,235.85,235.85,0,0,1-22.37-22.19c-2.05-2.32-4.09-4.69-6.11-7.15A10.83,10.83,0,0,1,670.43,876a275.82,275.82,0,0,1,32.47-7.36,315.48,315.48,0,0,1,117.26,2.76q3.47.75,7,1.57a322.92,322.92,0,0,1,69.27,25.18h0a345.32,345.32,0,0,1,31.25,17.58Q935.32,920.59,943,926a10.84,10.84,0,0,1-1.63,18.68,304.3,304.3,0,0,1-41.93,15.74" transform="translate(-649.96 -820.5)"/><path class="cls-5" d="M665.08,893.27s23.81,13.1,37.82-24.63l23,35.1s-20.27,22.4-32.3,18.87" transform="translate(-649.96 -820.5)"/><path class="cls-5" d="M777.51,950a106,106,0,0,0,4.57,17.11h0c.23.63.7.69,1.39.3,4.59-2.71,18.44-27.12,28.06-51.2,7.35-18.38,12.22-36.57,8.62-44.77l-45,23.27" transform="translate(-649.96 -820.5)"/><path class="cls-5" d="M775.1,894.7c-.09,1.06-2.47,29.19,2.4,55.24" transform="translate(-649.96 -820.5)"/><path class="cls-5" d="M775.11,894.67c3.95-14-26.19-30.19-26.19-30.19-3.06,22.69-23.06,39.26-23.06,39.26a72.7,72.7,0,0,1,5.89,45.13l10-12.57,29.42-36.78,3.89-4.85" transform="translate(-649.96 -820.5)"/><path class="cls-5" d="M775.11,894.67a0,0,0,0,0,0,0" transform="translate(-649.96 -820.5)"/><path class="cls-5" d="M671.19,900.42l54.67,3.32s33.44,3.66,45.36-4.22a8.76,8.76,0,0,0,3.88-4.82" transform="translate(-649.96 -820.5)"/><path class="cls-5" d="M852,911.45c.25-16.68-5.71-32-24.87-38.48" transform="translate(-649.96 -820.5)"/><path class="cls-5" d="M775.11,894.67l36.43,21.5.93.56s7.79,36.18,18.94,54.72c.06.11.19.1.35,0,1.51-.92,6.87-9.83,11.7-22,4.39-11.1,8.34-24.94,8.53-37.95" transform="translate(-649.96 -820.5)"/><polyline class="cls-5" points="91.84 115.8 127.55 129.44 127.55 129.44"/><path class="cls-5" d="M881.94,965c6.1-1.38,11.95-2.93,17.5-4.55h0l28.2-44.67" transform="translate(-649.96 -820.5)"/><path class="cls-5" d="M843.46,949.41,881.94,965s-18.51-50.39-30-53.51h0l44.4-13.3h0l3.05,62.25" transform="translate(-649.96 -820.5)"/></g><g class="cls-2"><path class="cls-3" d="M953.71,935.41A11.63,11.63,0,0,1,958.4,955a326.72,326.72,0,0,1-37.35,30.29l13.53-55.08C940.88,931.75,947.26,933.47,953.71,935.41Z" transform="translate(-649.96 -820.5)"/><path class="cls-4" d="M934.58,930.19l-13.53,55.08-24.27-62.35A371.2,371.2,0,0,1,934.58,930.19Z" transform="translate(-649.96 -820.5)"/><path class="cls-3" d="M896.76,922.91s0,0,0,0l24.27,62.35h0c-5.1,3.54-10.53,7.11-16.28,10.59,0,0-36-45-48.7-44.31h0Z" transform="translate(-649.96 -820.5)"/><path class="cls-3" d="M896.76,922.91l-40.7,28.64c-5.41-17.07-16.69-30.66-38.4-30.73A348.37,348.37,0,0,1,896.76,922.91Z" transform="translate(-649.96 -820.5)"/><path class="cls-3" d="M817.66,920.82c21.71.07,33,13.66,38.4,30.73h0c4.24,13.31,4.92,28.75,4.22,41.55-.76,14.07-3.19,25-4.41,26.41l-.36.13c-17.65-15.09-37.89-49.29-37.89-49.29l-1.14-.25c1.23-21.21,0-41.39-6.45-48.53Q813.82,921.18,817.66,920.82Z" transform="translate(-649.96 -820.5)"/><path class="cls-4" d="M810,921.58l-38,39c-.75-15.62-36.94-21.84-36.94-21.84A337.91,337.91,0,0,1,810,921.58Z" transform="translate(-649.96 -820.5)"/><path class="cls-3" d="M772.08,960.6l38-39c6.45,7.14,7.68,27.32,6.45,48.53Z" transform="translate(-649.96 -820.5)"/><path class="cls-4" d="M856.07,951.56c12.72-.71,48.7,44.31,48.7,44.31l-44.48-2.76C861,980.31,860.31,964.87,856.07,951.56Z" transform="translate(-649.96 -820.5)"/><path class="cls-4" d="M860.29,993.11l44.48,2.76a275.46,275.46,0,0,1-48.89,23.65C857.1,1018.08,859.53,1007.18,860.29,993.11Z" transform="translate(-649.96 -820.5)"/><path class="cls-3" d="M735.14,938.76s36.19,6.22,36.94,21.84l-2.31,6.27C760.31,979,725,986.58,725,986.58S739.74,962.91,735.14,938.76Z" transform="translate(-649.96 -820.5)"/><path class="cls-3" d="M816.49,970.11l1.14.25s20.24,34.2,37.89,49.29a227.83,227.83,0,0,1-50.2,12.14C809.07,1027.47,814.88,997.9,816.49,970.11Z" transform="translate(-649.96 -820.5)"/><path class="cls-3" d="M772.08,960.6l44.41,9.51c-1.61,27.79-7.42,57.36-11.17,61.68l-1.52.17h0a114.8,114.8,0,0,1-10.47-15.88h0c-13.82-24.87-21-54.32-21.23-55.44C772.07,960.62,772.08,960.6,772.08,960.6Z" transform="translate(-649.96 -820.5)"/><path class="cls-4" d="M769.77,966.87a9.5,9.5,0,0,0,2.31-6.24c.27,1.12,7.41,30.57,21.23,55.44l-41-1.75Z" transform="translate(-649.96 -820.5)"/><path class="cls-4" d="M769.77,966.87l-17.45,47.45-6,16.22a78,78,0,0,0-21.34-44S760.31,979,769.77,966.87Z" transform="translate(-649.96 -820.5)"/><path class="cls-4" d="M735.14,938.76c4.6,24.15-10.13,47.82-10.13,47.82l-35.32-27.93A335.59,335.59,0,0,1,735.14,938.76Z" transform="translate(-649.96 -820.5)"/><path class="cls-4" d="M689.69,958.65,725,986.58l-56.8,15.22c-2.88-1.67-5.76-3.39-8.66-5.21C659.55,996.59,688.25,1001.84,689.69,958.65Z" transform="translate(-649.96 -820.5)"/><path class="cls-4" d="M668.21,1001.8,725,986.58s-13,29.71-26.47,30.21A254,254,0,0,1,668.21,1001.8Z" transform="translate(-649.96 -820.5)"/><path class="cls-4" d="M752.32,1014.32l41,1.75h0A114.8,114.8,0,0,0,803.79,1032h0a205.79,205.79,0,0,1-57.45-1.42Z" transform="translate(-649.96 -820.5)"/><path class="cls-3" d="M689.69,958.65c-1.44,43.19-30.14,37.94-30.14,37.94a11.63,11.63,0,0,1-.42-19.4A295.86,295.86,0,0,1,689.69,958.65Z" transform="translate(-649.96 -820.5)"/><path class="cls-3" d="M725,986.58a78,78,0,0,1,21.34,44,220.22,220.22,0,0,1-47.81-13.75C712,1016.29,725,986.58,725,986.58Z" transform="translate(-649.96 -820.5)"/><path class="cls-6" d="M904.77,995.87a275.46,275.46,0,0,1-48.89,23.65l-.36.13a227.83,227.83,0,0,1-50.2,12.14l-1.52.17a205.79,205.79,0,0,1-57.45-1.42,220.22,220.22,0,0,1-47.81-13.75,254,254,0,0,1-30.33-15c-2.88-1.67-5.76-3.39-8.66-5.21a11.63,11.63,0,0,1-.42-19.4,295.86,295.86,0,0,1,30.56-18.54A338.61,338.61,0,0,1,810,921.58q3.78-.41,7.62-.76a348.37,348.37,0,0,1,79.1,2.09s0,0,0,0a371.2,371.2,0,0,1,37.8,7.27c6.3,1.56,12.68,3.28,19.13,5.22A11.63,11.63,0,0,1,958.4,955a326.72,326.72,0,0,1-37.35,30.29" transform="translate(-649.96 -820.5)"/><path class="cls-6" d="M659.55,996.59s28.7,5.25,30.14-37.94L725,986.58s-13,29.71-26.47,30.21" transform="translate(-649.96 -820.5)"/><path class="cls-6" d="M793.32,1016.07A114.8,114.8,0,0,0,803.79,1032h0c.45.56,1,.46,1.52-.17,3.75-4.32,9.56-33.89,11.17-61.68,1.23-21.21,0-41.39-6.45-48.53l-38,39" transform="translate(-649.96 -820.5)"/><path class="cls-6" d="M772.08,960.63c.27,1.12,7.41,30.57,21.23,55.44" transform="translate(-649.96 -820.5)"/><path class="cls-6" d="M772.08,960.6c-.75-15.62-36.94-21.84-36.94-21.84,4.6,24.15-10.13,47.82-10.13,47.82a78,78,0,0,1,21.34,44l6-16.22,17.45-47.45,2.31-6.27" transform="translate(-649.96 -820.5)"/><path class="cls-6" d="M772.08,960.6s0,0,0,0" transform="translate(-649.96 -820.5)"/><path class="cls-6" d="M668.21,1001.8,725,986.58s35.3-7.63,44.76-19.71a9.5,9.5,0,0,0,2.31-6.24" transform="translate(-649.96 -820.5)"/><path class="cls-6" d="M856.06,951.55c-5.41-17.07-16.69-30.66-38.4-30.73" transform="translate(-649.96 -820.5)"/><path class="cls-6" d="M772.08,960.6l44.41,9.51,1.14.25s20.24,34.2,37.89,49.29c.1.09.23,0,.36-.13,1.22-1.44,3.65-12.34,4.41-26.41.7-12.8,0-28.24-4.22-41.55" transform="translate(-649.96 -820.5)"/><polyline class="cls-6" points="102.36 193.82 143.35 195.57 143.36 195.57"/><path class="cls-6" d="M904.77,995.87c5.75-3.48,11.18-7,16.28-10.59h0l13.53-55.08" transform="translate(-649.96 -820.5)"/><path class="cls-6" d="M860.29,993.11l44.48,2.76s-36-45-48.7-44.31h0l40.7-28.64h0v0l24.27,62.35" transform="translate(-649.96 -820.5)"/></g><path class="cls-1" d="M1121.11,820.86c.13-.23-.3-.29-.35-.36C1120.68,821,1121.21,820.89,1121.11,820.86Z" transform="translate(-649.96 -820.5)"/><polygon class="cls-1" points="470.44 4.81 470.31 4.67 470.46 5.43 470.44 4.81"/><path class="cls-1" d="M1118.9,829.14c.8-.1.43-1.43.93-2l.2,0-.42-.52A9.36,9.36,0,0,1,1118.9,829.14Z" transform="translate(-649.96 -820.5)"/><path class="cls-1" d="M1116.66,830.62c.31,0,0,.53.27-.44l-.1.06A4,4,0,0,1,1116.66,830.62Z" transform="translate(-649.96 -820.5)"/><path class="cls-1" d="M1116.83,830.24c.14-.41-.32.18,0,0Z" transform="translate(-649.96 -820.5)"/><path class="cls-1" d="M1116.25,832.16l0-.62c-.19.05-.41.51-.45.29C1115.68,832.42,1115.87,832.37,1116.25,832.16Z" transform="translate(-649.96 -820.5)"/><path class="cls-1" d="M1116.53,832.85v-.31C1116.46,832.56,1116.41,832.63,1116.53,832.85Z" transform="translate(-649.96 -820.5)"/><path class="cls-1" d="M1116.57,831.88l0,.66c.14,0,.36,0,0-.3C1116.75,832.37,1116.61,832.18,1116.57,831.88Z" transform="translate(-649.96 -820.5)"/><path class="cls-1" d="M1116.8,831.59c.26-.25.5-.6.52,0C1117.63,830.57,1117.1,830.53,1116.8,831.59Z" transform="translate(-649.96 -820.5)"/><path class="cls-1" d="M1119.51,829.61l.35-.33-.09-.43C1119.81,829.07,1119.29,829.55,1119.51,829.61Z" transform="translate(-649.96 -820.5)"/><path class="cls-1" d="M1114.6,835.33c.13.09.45,0,.65,0v-.45C1115.06,835,1114.82,835.39,1114.6,835.33Z" transform="translate(-649.96 -820.5)"/><path class="cls-1" d="M1115.25,835.33V836C1115.49,835.5,1115.42,835.36,1115.25,835.33Z" transform="translate(-649.96 -820.5)"/><polygon class="cls-1" points="467.27 12.73 467.14 11.57 467.21 12.92 467.27 12.73"/><polygon class="cls-1" points="463.74 17.06 463.55 16.6 463.81 17.38 463.74 17.06"/><path class="cls-1" d="M1113.17,839.06c-.17-.35-.59.16-.66-.17a2.77,2.77,0,0,0,.07,1.25A1.56,1.56,0,0,1,1113.17,839.06Z" transform="translate(-649.96 -820.5)"/><path class="cls-1" d="M1112.68,840.78a3.35,3.35,0,0,0-.1-.64A1.89,1.89,0,0,0,1112.68,840.78Z" transform="translate(-649.96 -820.5)"/><path class="cls-1" d="M1114.79,837a.74.74,0,0,0-.58.31l.49-.08Z" transform="translate(-649.96 -820.5)"/><path class="cls-1" d="M1114.71,837.21h0l-.22.49Z" transform="translate(-649.96 -820.5)"/><path class="cls-1" d="M1114.82,836.93l0,.05S1114.86,837,1114.82,836.93Z" transform="translate(-649.96 -820.5)"/><path class="cls-1" d="M1116.27,834.63c.09.44,0,1.25.65.69C1116.75,835,1116.4,835.28,1116.27,834.63Z" transform="translate(-649.96 -820.5)"/><path class="cls-1" d="M1115.43,836.84l.34-.59c-.11,0-.31,0-.35-.19Z" transform="translate(-649.96 -820.5)"/><polygon class="cls-1" points="465.48 16.69 465.47 16.34 465.34 16.55 465.48 16.69"/><path class="cls-1" d="M1113.48,839.87a2.09,2.09,0,0,1-.14,1,5.64,5.64,0,0,0,.54-1C1113.78,839.72,1113.61,839.48,1113.48,839.87Z" transform="translate(-649.96 -820.5)"/><path class="cls-1" d="M1114.11,838.59v.07C1114.16,838.64,1114.18,838.61,1114.11,838.59Z" transform="translate(-649.96 -820.5)"/><polygon class="cls-1" points="462.06 23.61 462.16 23.58 462.09 23.54 462.06 23.61"/><path class="cls-1" d="M1114,839.79a.62.62,0,0,0,.09-.63,3.7,3.7,0,0,1-.19.66S1114,839.89,1114,839.79Z" transform="translate(-649.96 -820.5)"/><path class="cls-1" d="M1112.5,841.77a3.62,3.62,0,0,0,.41-.38C1112.73,841.48,1112.42,841.68,1112.5,841.77Z" transform="translate(-649.96 -820.5)"/><path class="cls-1" d="M1114,838.71a.11.11,0,0,1,0-.05C1113.84,838.71,1113.89,838.72,1114,838.71Z" transform="translate(-649.96 -820.5)"/><path class="cls-1" d="M1114,838.71a1.4,1.4,0,0,0,.1.45,2.24,2.24,0,0,0,0-.5Z" transform="translate(-649.96 -820.5)"/><path class="cls-1" d="M1114.17,846.12c-.35-.19-.4-1,.23-1.48,0-.71-1.4-.8-2.28-.55.15.08.3.14.27.84.29-.13,1-1.17,1.14-.52-.14.89-.4.61-.75.93.59-.15.25,1.3,1,1.4l0-.81C1113.93,846,1114,846.28,1114.17,846.12Z" transform="translate(-649.96 -820.5)"/><path class="cls-1" d="M1112.63,842.93l0-.27a2.41,2.41,0,0,1-.85.67c0,.5.11.64.22.72l.56-1.23Z" transform="translate(-649.96 -820.5)"/><path class="cls-1" d="M1113.14,841.53c.32.36.24,1,.83.83.27-.75-.13-.65-.13-1.16-.37,1.23-.08-.44-.66.34a3.05,3.05,0,0,1,.16-.69,6,6,0,0,1-.43.54h0c.07,0,.11,0,.06,0v0a.3.3,0,0,1,.13.12c-.22.31-.12,0-.13-.12l0,0h0l-.26,1.28A4.22,4.22,0,0,0,1113.14,841.53Z" transform="translate(-649.96 -820.5)"/><path class="cls-1" d="M1117.53,836.3a.11.11,0,0,1-.1,0C1117.44,836.4,1117.47,836.44,1117.53,836.3Z" transform="translate(-649.96 -820.5)"/><path class="cls-1" d="M1117.1,836.7c0-.11-.16-.25,0-.52s.19.08.33.12c0-.21-.06-.71-.46-.25l0,.1c-.33.43-1.07.86-1.1.75A3,3,0,0,0,1117.1,836.7Z" transform="translate(-649.96 -820.5)"/><path class="cls-1" d="M1115.21,839.19l-.21,1.08.55-.37-.22-.06C1115.64,839.3,1115.34,839.32,1115.21,839.19Z" transform="translate(-649.96 -820.5)"/><polygon class="cls-1" points="461.82 23.64 461.45 23.34 461.81 24.15 461.82 23.64"/><polygon class="cls-1" points="461.35 24.96 461 24.76 461.08 25.19 461.35 24.96"/><path class="cls-1" d="M1080.34,918.21l-.08.33A1.17,1.17,0,0,0,1080.34,918.21Z" transform="translate(-649.96 -820.5)"/><path class="cls-1" d="M1081.63,916.29l-.13-.16C1081.53,916.28,1081.57,916.36,1081.63,916.29Z" transform="translate(-649.96 -820.5)"/><path class="cls-1" d="M1097.73,876.87c-.52.26-1.26.47-.83.61l.45.06A1.13,1.13,0,0,1,1097.73,876.87Z" transform="translate(-649.96 -820.5)"/><path class="cls-1" d="M1089.36,898.94l.18-.06c-.07-.17-.14-.32-.21-.47C1089.34,898.57,1089.35,898.75,1089.36,898.94Z" transform="translate(-649.96 -820.5)"/><path class="cls-1" d="M1090.77,900.1l-.54.39A2.35,2.35,0,0,0,1090.77,900.1Z" transform="translate(-649.96 -820.5)"/><path class="cls-1" d="M1073.47,928.84l.14.56C1074,928.93,1073.62,929,1073.47,928.84Z" transform="translate(-649.96 -820.5)"/><path class="cls-1" d="M1106,858.72a2.72,2.72,0,0,0-.63.8C1105.77,859.18,1106.27,859,1106,858.72Z" transform="translate(-649.96 -820.5)"/><path class="cls-1" d="M1077,914.92c0,.2,0,.32.08.37C1077.11,915.08,1077.1,914.94,1077,914.92Z" transform="translate(-649.96 -820.5)"/><path class="cls-1" d="M1104.91,860.57c.06,0,.11-.1.17-.15a2.81,2.81,0,0,1,.28-.9A1,1,0,0,0,1104.91,860.57Z" transform="translate(-649.96 -820.5)"/><path class="cls-1" d="M1041.86,962.12a.45.45,0,0,1-.11,0C1041.78,962.2,1041.81,962.17,1041.86,962.12Z" transform="translate(-649.96 -820.5)"/><path class="cls-1" d="M1028.66,966.61a4.79,4.79,0,0,1,.42-.33A1.05,1.05,0,0,0,1028.66,966.61Z" transform="translate(-649.96 -820.5)"/><path class="cls-1" d="M1109,850.58c.09-.28,0-.06,0,0Z" transform="translate(-649.96 -820.5)"/><path class="cls-1" d="M1111.15,849.9a.26.26,0,0,0,.15.19A.29.29,0,0,1,1111.15,849.9Z" transform="translate(-649.96 -820.5)"/><path class="cls-1" d="M1106.21,864.36v0C1106.32,864.33,1106.29,864.34,1106.21,864.36Z" transform="translate(-649.96 -820.5)"/><path class="cls-1" d="M1109.36,850.25a1.56,1.56,0,0,0-.26.3A1.87,1.87,0,0,0,1109.36,850.25Z" transform="translate(-649.96 -820.5)"/><path class="cls-1" d="M1109.15,850.22l.14-.22C1109.24,849.94,1109.18,850,1109.15,850.22Z" transform="translate(-649.96 -820.5)"/><path class="cls-1" d="M1108.88,851a2.1,2.1,0,0,1,.22-.42s-.08.05-.09,0Z" transform="translate(-649.96 -820.5)"/><path class="cls-1" d="M1058.8,944.3l-.07,0C1058.66,944.67,1058.72,944.55,1058.8,944.3Z" transform="translate(-649.96 -820.5)"/><path class="cls-1" d="M1098.42,885.78v0l0,0Z" transform="translate(-649.96 -820.5)"/><path class="cls-1" d="M1098.23,886.88c-.28-.65-.1-.85.16-1.11l-1.28-.24Z" transform="translate(-649.96 -820.5)"/><path class="cls-1" d="M1077.34,922.86l.75-.4c0,1.12-.55,1.54.3,1.27-1.05-.87,1.56-2.52.5-3.37l.52-.25c-.09.11,0,.18-.13.29,1.09-.44-.41-1.15.44-2.08.32-.3.65-.45.62-.11l.25-1c.18-.22.34,0,.16.19l.72-1.3,0,0a6.35,6.35,0,0,1-.07-1.14c.37-.2,0,.24.21.25l.17-.86c.48-.09.4.66,0,1.11,1.56.09.09-.75,1.63-1.73l-.27.75c.92,0,1-.67,1.87-1.16-.32,0-1.95.84-1.76-.09a1.14,1.14,0,0,0,.45-1c.41.25.56-.21.85-.72l.52.37c.18-.64-.13-.77-.17-1.23.42-.57.92-.43,1.37-.36.66-.92-1.08.26-.5-1a4.39,4.39,0,0,0,1.05-2.55c.52-.45.28.3.55.19l-.14-.76c.08-.11.2,0,.25.07.08-.53-.53-.36-.28-1.11-.5-.53,1.68-.85,1.46-2.08.27-.11.28.29.53.35a7.33,7.33,0,0,0,.14-2.44l.82-.59c-.75.35-.82-.67-.87-1.55a6.5,6.5,0,0,0-.74.24l.27-1.21c.16-.07.3.14.44.44l0-.27c.41-.26.63.12.8.56l-.56.18c.2.45.44.9.8,1a.85.85,0,0,1,0-.43c.06.12.11.21.19.21s0-.18,0-.43l.76.1-.22-.19,1.14-1.16c-.09-1.34-.55-2.69,0-4.39.26.63.71.48,1.25.8-.8.12-.41,1.34-1,2.09.29-.39.5-.16.54,0l.26-1.73c.43.27.5-.13.88-.41-1-.19,0-1.4,0-2.14.31.12.54.42.09,1.11,1.09-.45-.5-1.58.48-2.07-.09.18-.18.26-.07.4,0-.55.69-1.45.83-1.07l-.09.18c.73-1.12,1.83-3.6,1.16-4.15a6.76,6.76,0,0,1,1,.76l-1.51-3.38c.56.51,2.48.57,2.36,1.73a1.75,1.75,0,0,0,.58-1.24c-.19.15-1.18,0-1.11-.28,1.08-.36.63-.31,1.69-.9-.28.22-1.16-.6-.9-1,.12.14,1,.45,1.06.67l-.46-1.63c0,.38.83.47,1.24.35-.25,0,.5-1,.55-1.33l-.47.37c.78-1.21-.82-2-.17-3.21.14.26,1.12,1,1.55.4-.38-.54-1.89-2.5-1.76-3.81l.4-.08.06-1a20.5,20.5,0,0,1,1.73,4.33c.47-.38.42,0,.73-.71.4-.13.24.59.16.81l1-1.61c-.64-.2,0-1.58-.55-1.75l-.22,2.14c-.65-.22-1.23-1.86-.58-3,.38-.19,1,.73,1.2.8-.14-.25.12-1.33.31-1.37l.1.66c.53-.57-.32-1.46.63-2,.17-.26,1.17-.48.83-.69a5.81,5.81,0,0,1-3.5-1.29,10.55,10.55,0,0,1,1.81-1.31c.75-.22,1,1.27,1.65,1.09-.16-.09-.25-.44-.27-.57.27-.23.46.35.67-.32-.58-.38.62-1.27-.4-.54.1-.7.42-.6.72-1.35-.51.06-1.09-1.26-1-1.95a.81.81,0,0,0,.53,0c.63-1.25,1.19-1.82,1.71-3,.2-.05.63-.54.8-.18a1.24,1.24,0,0,1,0-.85c.85-.48-.27.86.61.6-.34-.21-.09-1.17-.09-1.79-.64-.08-.63,1.16-.63,1.79-.78-.33-1.2-1.6-1-3,.22-1.08.68-.22.64-.44.92-1.81-.69-2.16.52-3.47.75-.41,1,.38,1.41.4-.15.88-.83,1.11-1,1.66l.51-.57a1.45,1.45,0,0,1-.31,1.15c.66-.33,1.42-3.12,2.42-4.39-.06-.33,0-.84-.34-.72l-.12.49c-.57.26-.2-1.09-.62-.59a3.3,3.3,0,0,1,.38-2.36l.64.07c-.17,0-.57.42-.5.73-.1-.46,1.31-1,.73-1.7l-.64.44c0-.73-.32-1.73.16-2.43-.7.12,0,.21-.88.48,1-.14-.83,1.94.33,1.54-1,.24-.71.83-1.66,1.29.2,0,.46-.11.11.49a1.39,1.39,0,0,1,.11.21l0,0,0,0s0,0,0,0a.87.87,0,0,1,.42-.21c.3.5-.13,1.51,0,2-.25.34-.15-.25-.43-.13l.12.66c-.44-.12-1.11.72-1-.27l-.36.79a2.25,2.25,0,0,0-.79,1.46c-.24.34.06,1.15-.13.69l-.27,1.36-.1,0c-.57,1.22-.41,2.84-1.76,3.94a3.63,3.63,0,0,1-.54,1.6l-.42,0c-.1.59-1.06,1.44-.79,1.83-1.21.16-1.34,2.49-1.92,3.35l.45.25a8,8,0,0,0-.64,2.18l.43.14c0,.83-1.09,1.63-1.54,2.73-.12-.14,0-.4.22-.55-1.5.88-.6,3-1.81,3.9a.78.78,0,0,1-.33.7.22.22,0,0,0,0-.08.67.67,0,0,0-.06.12l-.41.3a1.31,1.31,0,0,0,.38-.24,3.93,3.93,0,0,0-.26,1l-.5-.07,0,.09c-.31.25.09.36.5.34a1.7,1.7,0,0,0,0,.56c-.83-.07-.19,1-1.11,1,.25.4-.54,1.8.14,2.35-.1,0-.2,0-.12-.14a1.5,1.5,0,0,0-.48,1.09l-.62-.11.34,1.17c-.58.32-.88.43-1.06-.26.07,1.49-.23,1.06-.09,2.38l-.32-.22c-.17.36,0,1.17-.38,1.23-1.06.47-2.11,3.87-3.79,5.57,1.24.16-1,.7-.21,1.2-.3,0-.59.19-.63-.25-.31,1.15-1.21,1.33-.93,2.4-.31,0-.24-.41-.44-.39,0,.11,0,.44-.16.47s-.13-.26-.14-.48c-.53,1.06.16,1.58.81,2-.62.35-.71.64-.47,1.27-.33.06-.74.23-.46-.46-.24.34-1.59,2-1,2.37-.21,0-.33.48-.32.62a11.73,11.73,0,0,0-1,1.66l.22-.17c.49.71-.24.75-.53,1.43l-.06-.06c-1.35,1.18-.15.77-1.55,1.88l.46.17c.8.67-1.28,1-1.44,2l.42-.16c0,.64-2,.53-2.37.91-.14.05,0-.23,0-.4-1.25.85.44.48,0,1.44-.39,0-.6-.67-1-.11-.41.14-.12,2.31-1.19,2.75.33,0,.66-.07.57.44-.33.67-1.92,1.13-1.6,2.14a.28.28,0,0,1-.24,0c-.14.59-.71,1.73-.53,2.26-1.67-.5-1.33,3.35-2.58,2.47l-.91,1.48-.11-.13a2.07,2.07,0,0,0-.58,1.9c-.23.15-.24-.08-.29-.15a3.32,3.32,0,0,0-1.43,2.85l-.48-.18c0,.49-2,1.41-2.53,3a.37.37,0,0,1-.07-.27,6,6,0,0,1-1.94,2.14c-.73.6-1.25,1.18-.75,2l-.4,1.2c1.07-1.1.47.67,1.09.37-.29.54-1.4.87-1,.23l.14,0c-.56-.81-1.45,1.27-1.92.83-1.91,2.31-4.18,4.22-6.12,6.24l.76.25-.69.7c-.29.08-.65-.13-.16-.63-.55,0-.53,1.11-.43,1.23-1.13.81-.26-1-.56-.68l-.34.46.15,0c-.09.54.12.8-.49,1.37-.47.29-.52-.11-.68,0,0,0-.11,0-.24.22l-.9.84.76.05c-.17.59-.83.81,0,.85-.65,0-1.51.72-2.29,1.52a10.29,10.29,0,0,1-1.79,1.66,4.28,4.28,0,0,1-1.51,2c.25-.08.8.29.17.8-.7-1.17-1.48.6-2.63.32.87.08-1.58,1.67-.29,1.72-.57.38-.37-.34-1-.23-.82,1.49-2.86,2.09-4.25,3.5.09.16.52.15.37.62h-1.36c-.25.31.38,1-.57,1,.18,0,.44.13.27.34a23.91,23.91,0,0,0-4.75,3.53,13,13,0,0,1-5.24,2.9c.63,0,.36.2,0,.44.27-.08.24.36.42.53l-1.74.38c.13.72-1.43,1-1.22,1.65l.37-.39c-.17,1,1.73.83,2.18,1.68.17-1.14,2.45-.14,2.83-1.87.35,0,0,.39.23.49,0-.53.3-.84,1-1.13v.14c1.6-1.33,2.58-1.49,4.6-2.72l-.43-.27a1.77,1.77,0,0,1,.86-.26c0-.93-1.13.84-1.2-.11,1.11.35,2.77-2.18,3.81-1.61.61-.48-.52-.29.09-.76l.34.1-.08-.42a.83.83,0,0,1,1,0c-.11,0-.22.28-.31.38.72-.16,1.34-1.3,1.58-1.36l-.68.35c1.42-1.58,3.65-3,4.73-4.8l-.27-.07c.87-1.35,1.09-.65,2.21-1.94v.08a2.35,2.35,0,0,1,.7-1.1c-.13.49.93-.2.73.4.9-1.49.36-.83.57-2.2l.44.09a1.58,1.58,0,0,1,.47-1.31c-.27.71.79,0,.53.86,1.86-.67,1.27-2.46,2.7-2.22-.17-1.3-1.48.72-1.32.24-.51,0-.08-1,.38-1.36s1.61.22,2.59-.83c-.1.1,0,.16-.15.26.56-.21.48-1,1.23-1.2-.21-.69.6-.61.09-1.22l-.75,1.1c.35-.7.13-1.84,1.29-2.44a2.12,2.12,0,0,1-.12.85c.41-.11.35-.62.77-.73.52.61-.94,1.3-1,2.3.5-.06.59-1.51,1-.63-.41-1.16,1.06-1,1.09-2.24l.31.36a1.81,1.81,0,0,1,.3-.75l.11.79c.14-.93,1.37-.82,1.64-1.59-1,1.21-.66-.1-1.36.17.79-1.89,1.67,0,2.92-1.85-.14.27-.94.66-.81.17a2.86,2.86,0,0,1,1.2-.59c.87-1.17-.52-.15-.34-.8.76,0,.28-.7.55-1.3l.37.31c1.29-1.08-.49-1,.73-1.89l.12.91.35-.71.33.47a2.37,2.37,0,0,1,1.09-1.6c-.38-.06-.61-.63-.17-1.2.54-.21.19.5.78-.35.09.37.23.81-.4.88.09.13.09.37.18.5.6-.21.91-1,1.14-1.3a1,1,0,0,1-.34.25c.14-.53.26-1.07.39-1.6.29-.08.29.16.29.4.14-.28.09-.58.33-1,.24.33.58.56.34,1.17l.52-1.4c.2,0,.82-.3.83-.06.66-.5.58-2,1.44-2.67a.72.72,0,0,1,.07-.44c.65-.74,1.55-1.17,1.8-2.44l1-.13c.4-.83-1.25.22-.57-1.17.45-1,.72,0,1.1-.18,0-.65,0-1.83,1-2.32C1077.7,922.43,1077.47,922.58,1077.34,922.86Zm6-9.59c0,.24,0,.78-.33.76C1082.65,913.53,1083,913.5,1083.31,913.27Zm7.66-15.33c.06.22-.13.4-.43.56A1.07,1.07,0,0,1,1091,897.94Zm17.16-44.21,0,0C1107.79,854.13,1107.92,854,1108.13,853.73Zm.58-.84c0-.12-.08-.14-.16-.13.08.11,0,.32-.13.55C1108.57,853.29,1108.7,853.2,1108.71,852.89Zm-54.44,91.52.23,0C1054.29,944.77,1054.29,944.6,1054.27,944.41Z" transform="translate(-649.96 -820.5)"/><path class="cls-1" d="M1090.61,900a.59.59,0,0,1-.27-.05C1090.37,900,1090.45,900.07,1090.61,900Z" transform="translate(-649.96 -820.5)"/><path class="cls-1" d="M1073.45,928.73l0,0a.56.56,0,0,0,0,.08Z" transform="translate(-649.96 -820.5)"/><path class="cls-1" d="M1106.34,868.79a.76.76,0,0,1-.39.27C1106.05,869.12,1106.18,869.07,1106.34,868.79Z" transform="translate(-649.96 -820.5)"/><path class="cls-1" d="M1110,847.67l-.12.64a.87.87,0,0,1,.36-.48C1110.1,847.81,1109.9,847.86,1110,847.67Z" transform="translate(-649.96 -820.5)"/><path class="cls-1" d="M1114.83,843.62c0-.11.07-.19.05-.3l-.22-.06C1114.52,843.64,1114.59,844,1114.83,843.62Z" transform="translate(-649.96 -820.5)"/><path class="cls-1" d="M1111.68,847.72c.4.11.42-.31.52-.76,0,0,0,0,0,.07C1111.69,846.7,1111.69,847.21,1111.68,847.72Z" transform="translate(-649.96 -820.5)"/><path class="cls-1" d="M1112.23,846.86a1.3,1.3,0,0,1,.14-.39C1112.18,846.33,1112.27,846.61,1112.23,846.86Z" transform="translate(-649.96 -820.5)"/><path class="cls-1" d="M1109,851.61c.18-.16-.43-.32-.23-.37C1108.33,850.82,1108.76,852.79,1109,851.61Z" transform="translate(-649.96 -820.5)"/><polygon class="cls-1" points="463.1 27.39 462.57 27.35 462.85 27.73 463.1 27.39"/><path class="cls-1" d="M1111.37,851l.4-.61c-.08,0-.09-.13-.08-.24C1111.5,850.59,1111.23,851,1111.37,851Z" transform="translate(-649.96 -820.5)"/><path class="cls-1" d="M1111.69,850.19a1.13,1.13,0,0,0,.14-.57A2.37,2.37,0,0,0,1111.69,850.19Z" transform="translate(-649.96 -820.5)"/><polygon class="cls-1" points="462.87 28.36 462.69 28.51 462.46 28.97 462.87 28.36"/><path class="cls-1" d="M1108.31,858.14l-.18.78c.13.14.31,0,.36-.31S1108.51,858.1,1108.31,858.14Z" transform="translate(-649.96 -820.5)"/><path class="cls-1" d="M1110.49,856.49c-.18.15-.29.12-.49.17l.57.26Z" transform="translate(-649.96 -820.5)"/><path class="cls-1" d="M1109.74,858.66c.13.14,0,1.24.36.31C1110,858.83,1110.15,858.05,1109.74,858.66Z" transform="translate(-649.96 -820.5)"/><polygon class="cls-1" points="454.33 48.71 454.4 48.52 453.46 48.13 454.33 48.71"/><path class="cls-1" d="M1102.12,879.74c.62-.74-.47-.47.16-1.11-.12-.3-.51.52-.61.23C1101.66,879.48,1101.41,879.69,1102.12,879.74Z" transform="translate(-649.96 -820.5)"/><path class="cls-1" d="M1101.67,878.86a1.94,1.94,0,0,0,0-.33A.92.92,0,0,0,1101.67,878.86Z" transform="translate(-649.96 -820.5)"/><polygon class="cls-1" points="376.6 146.87 376 147.03 376.5 147.1 376.6 146.87"/><path class="cls-1" d="M1026,968.64l-.47-.46,0,.69C1025.7,968.77,1025.88,968.58,1026,968.64Z" transform="translate(-649.96 -820.5)"/><path class="cls-1" d="M1085.3,912.54l-.1-.12c-.2,0-.28.1-.46.33Z" transform="translate(-649.96 -820.5)"/><polygon class="cls-1" points="430.49 98.69 430.58 98.58 429.95 98.48 430.49 98.69"/><path class="cls-1" d="M1077.16,925.32c.19-.21.27-.56.45-.78C1077.35,925.11,1076.52,925,1077.16,925.32Z" transform="translate(-649.96 -820.5)"/><path class="cls-1" d="M1182.32,994c.19.1.25-.32.31-.38C1182.25,993.57,1182.29,994.08,1182.32,994Z" transform="translate(-649.96 -820.5)"/><polygon class="cls-1" points="528.58 173.15 528.7 173.01 528.05 173.22 528.58 173.15"/><path class="cls-1" d="M1175.32,992.45c0,.78,1.2.33,1.69.78l0,.19.46-.45C1176.78,992.8,1175.74,992.82,1175.32,992.45Z" transform="translate(-649.96 -820.5)"/><path class="cls-1" d="M1174.16,990.35c0,.3-.46.08.36.23l0-.09A1.7,1.7,0,0,1,1174.16,990.35Z" transform="translate(-649.96 -820.5)"/><path class="cls-1" d="M1174.48,990.49c.34.11-.14-.3,0,0Z" transform="translate(-649.96 -820.5)"/><path class="cls-1" d="M1172.86,990l.54-.06c0-.19-.42-.38-.23-.43C1172.67,989.5,1172.7,989.68,1172.86,990Z" transform="translate(-649.96 -820.5)"/><path class="cls-1" d="M1172.25,990.36h.27C1172.51,990.27,1172.45,990.22,1172.25,990.36Z" transform="translate(-649.96 -820.5)"/><path class="cls-1" d="M1173.09,990.34h-.57c0,.13,0,.35.25,0C1172.66,990.54,1172.83,990.39,1173.09,990.34Z" transform="translate(-649.96 -820.5)"/><path class="cls-1" d="M1173.33,990.55c.19.24.48.45-.06.51C1174.16,991.29,1174.21,990.78,1173.33,990.55Z" transform="translate(-649.96 -820.5)"/><path class="cls-1" d="M1174.89,993.07l.26.33.38-.11C1175.34,993.34,1175,992.86,1174.89,993.07Z" transform="translate(-649.96 -820.5)"/><path class="cls-1" d="M1170.24,988.6c-.09.13,0,.44,0,.63l.39,0C1170.46,989,1170.18,988.82,1170.24,988.6Z" transform="translate(-649.96 -820.5)"/><path class="cls-1" d="M1170.2,989.23l-.59,0C1170,989.48,1170.16,989.4,1170.2,989.23Z" transform="translate(-649.96 -820.5)"/><polygon class="cls-1" points="521.92 170.56 522.93 170.37 521.77 170.51 521.92 170.56"/><polygon class="cls-1" points="518.42 167.33 518.83 167.12 518.13 167.41 518.42 167.33"/><path class="cls-1" d="M1167.11,987.39c.32-.19-.09-.57.19-.65a2,2,0,0,0-1.08.13A1.06,1.06,0,0,1,1167.11,987.39Z" transform="translate(-649.96 -820.5)"/><path class="cls-1" d="M1165.66,987a2.84,2.84,0,0,0,.56-.12A1.38,1.38,0,0,0,1165.66,987Z" transform="translate(-649.96 -820.5)"/><path class="cls-1" d="M1168.8,988.87a.66.66,0,0,0-.22-.56l0,.48Z" transform="translate(-649.96 -820.5)"/><path class="cls-1" d="M1168.61,988.8h0l-.4-.19Z" transform="translate(-649.96 -820.5)"/><path class="cls-1" d="M1168.85,988.89l0,0S1168.81,988.94,1168.85,988.89Z" transform="translate(-649.96 -820.5)"/><path class="cls-1" d="M1170.74,990.2c-.38.11-1.08.1-.63.67C1170.43,990.68,1170.17,990.36,1170.74,990.2Z" transform="translate(-649.96 -820.5)"/><path class="cls-1" d="M1168.89,989.48l.49.31c0-.11,0-.3.18-.36Z" transform="translate(-649.96 -820.5)"/><polygon class="cls-1" points="518.63 169.01 518.93 168.98 518.75 168.87 518.63 169.01"/><path class="cls-1" d="M1166.4,987.73a1.44,1.44,0,0,1-.84-.1,4.06,4.06,0,0,0,.85.49C1166.51,988,1166.73,987.84,1166.4,987.73Z" transform="translate(-649.96 -820.5)"/><path class="cls-1" d="M1167.46,988.29h-.06C1167.42,988.34,1167.44,988.36,1167.46,988.29Z" transform="translate(-649.96 -820.5)"/><polygon class="cls-1" points="512.87 166.01 512.88 166.1 512.92 166.03 512.87 166.01"/><path class="cls-1" d="M1166.43,988.21a.47.47,0,0,0,.55.06,3.21,3.21,0,0,1-.57-.15S1166.35,988.2,1166.43,988.21Z" transform="translate(-649.96 -820.5)"/><path class="cls-1" d="M1164.82,986.86a2.18,2.18,0,0,0,.3.38C1165.06,987.07,1164.91,986.78,1164.82,986.86Z" transform="translate(-649.96 -820.5)"/><path class="cls-1" d="M1167.37,988.15h0C1167.37,988,1167.37,988.08,1167.37,988.15Z" transform="translate(-649.96 -820.5)"/><path class="cls-1" d="M1167.37,988.15a1.27,1.27,0,0,0-.39.12,2,2,0,0,0,.42,0Z" transform="translate(-649.96 -820.5)"/><path class="cls-1" d="M1161,988.7a.76.76,0,0,1,1.27.16c.62-.07.78-1.41.62-2.26-.08.15-.14.3-.74.3.09.28,1,.94.38,1.1-.76-.1-.51-.36-.76-.69.09.57-1.14.3-1.27,1h.7C1161.11,988.46,1160.83,988.54,1161,988.7Z" transform="translate(-649.96 -820.5)"/><path class="cls-1" d="M1163.81,987l.23,0a1.9,1.9,0,0,1-.53-.8c-.43,0-.55.14-.63.25l1,.49Z" transform="translate(-649.96 -820.5)"/><path class="cls-1" d="M1165,987.47c-.33.33-.91.29-.77.85.63.23.57-.15,1-.17-1-.32.38-.11-.25-.63a2.39,2.39,0,0,1,.58.11,3.31,3.31,0,0,1-.44-.39v0h0c0,.07,0,.1,0,.06h0a.69.69,0,0,1-.11.13c-.26-.2,0-.12.11-.13s0,0,0-.06h0l-1.09-.19A3.24,3.24,0,0,0,1165,987.47Z" transform="translate(-649.96 -820.5)"/><path class="cls-1" d="M1169.23,991.52s0-.08,0-.11S1169.11,991.46,1169.23,991.52Z" transform="translate(-649.96 -820.5)"/><path class="cls-1" d="M1168.91,991.11c.1,0,.22-.16.44,0s-.07.19-.12.32c.19,0,.62-.08.25-.46l-.09,0c-.35-.3-.68-1-.58-1A3,3,0,0,0,1168.91,991.11Z" transform="translate(-649.96 -820.5)"/><path class="cls-1" d="M1166.88,989.38l-.92-.14.29.52.06-.22C1166.75,989.82,1166.75,989.52,1166.88,989.38Z" transform="translate(-649.96 -820.5)"/><polygon class="cls-1" points="512.85 165.77 513.14 165.39 512.41 165.79 512.85 165.77"/><polygon class="cls-1" points="511.75 165.37 511.94 165.02 511.56 165.13 511.75 165.37"/><path class="cls-1" d="M1096.63,973.82l-.27.09A.71.71,0,0,0,1096.63,973.82Z" transform="translate(-649.96 -820.5)"/><path class="cls-1" d="M1098.52,974l.07-.19C1098.49,973.94,1098.45,974,1098.52,974Z" transform="translate(-649.96 -820.5)"/><path class="cls-1" d="M1134.39,975.7c-.27-.47-.53-1.13-.61-.69v.45A.79.79,0,0,1,1134.39,975.7Z" transform="translate(-649.96 -820.5)"/><path class="cls-1" d="M1114.38,973.72l.09.15.33-.37Z" transform="translate(-649.96 -820.5)"/><path class="cls-1" d="M1113.81,975.45l-.45-.36A1.63,1.63,0,0,0,1113.81,975.45Z" transform="translate(-649.96 -820.5)"/><path class="cls-1" d="M1086.2,973.69l-.32.43C1086.36,974.14,1086.15,973.91,1086.2,973.69Z" transform="translate(-649.96 -820.5)"/><path class="cls-1" d="M1150.43,981.48a2.21,2.21,0,0,0-.68-.55C1150,981.31,1150.2,981.78,1150.43,981.48Z" transform="translate(-649.96 -820.5)"/><path class="cls-1" d="M1097.76,969.3c-.17.07-.25.15-.25.25C1097.68,969.49,1097.78,969.41,1097.76,969.3Z" transform="translate(-649.96 -820.5)"/><path class="cls-1" d="M1148.84,980.58a1.83,1.83,0,0,0,.13.16,1.94,1.94,0,0,1,.78.19A.74.74,0,0,0,1148.84,980.58Z" transform="translate(-649.96 -820.5)"/><path class="cls-1" d="M1048.27,973.84l-.08-.05C1048.18,973.85,1048.22,973.85,1048.27,973.84Z" transform="translate(-649.96 -820.5)"/><path class="cls-1" d="M1036.94,970.05a4,4,0,0,1,.46-.06A1,1,0,0,0,1036.94,970.05Z" transform="translate(-649.96 -820.5)"/><path class="cls-1" d="M1157.39,983.9c.24.07,0,0,0,0Z" transform="translate(-649.96 -820.5)"/><path class="cls-1" d="M1157.87,986a.29.29,0,0,0-.18.15A.34.34,0,0,1,1157.87,986Z" transform="translate(-649.96 -820.5)"/><path class="cls-1" d="M1145.54,982.21h0C1145.56,982.3,1145.56,982.28,1145.54,982.21Z" transform="translate(-649.96 -820.5)"/><path class="cls-1" d="M1157.66,984.22a1.81,1.81,0,0,0-.24-.24A1.28,1.28,0,0,0,1157.66,984.22Z" transform="translate(-649.96 -820.5)"/><path class="cls-1" d="M1157.69,984l.19.13C1157.94,984.08,1157.93,984,1157.69,984Z" transform="translate(-649.96 -820.5)"/><path class="cls-1" d="M1157.06,983.79a1.55,1.55,0,0,1,.36.19s-.05-.07,0-.08Z" transform="translate(-649.96 -820.5)"/><path class="cls-1" d="M1068.61,972l0,0C1068.31,972.13,1068.42,972.1,1068.61,972Z" transform="translate(-649.96 -820.5)"/><path class="cls-1" d="M1126.92,978.3h0l0,0Z" transform="translate(-649.96 -820.5)"/><path class="cls-1" d="M1126,978.41c.49-.43.69-.32.94-.15l0-1.28Z" transform="translate(-649.96 -820.5)"/><path class="cls-1" d="M1092.06,973.64l.6.43c-.79.59-1.32.34-.77.92.17-1.35,2.42,0,2.6-1.33l.39.32c-.12,0-.15,0-.26,0,.75.7.66-.94,1.68-.68.35.13.58.36.33.49l.82-.26c.23.05.15.28-.07.23h1.22v0a4.59,4.59,0,0,1,.82-.61c.29.22-.17.13-.11.3l.71-.26c.24.37-.35.66-.81.57.5,1.41.59-.29,1.87.63l-.65.11c.33.8.85.57,1.51,1.12-.14-.27-1.31-1.34-.54-1.61a.8.8,0,0,0,.88,0c0,.48.35.39.83.43l-.1.63c.53-.12.53-.45.87-.7.57.14.63.64.72,1.08.9.21-.55-.87.56-.86a3,3,0,0,0,2.28-.12c.51.29-.15.38,0,.58l.55-.44c.11,0,0,.17,0,.25.43-.15.12-.63.78-.72.27-.68,1.15,1.22,2,.55.17.21-.15.37-.13.62a6,6,0,0,0,2-.79l.68.53c-.47-.56.32-1,1-1.37a5.29,5.29,0,0,0-.39-.6l1-.18c.1.12,0,.32-.24.56l.21-.12c.31.28.06.62-.25.93l-.29-.44a2,2,0,0,0-.62,1.11.61.61,0,0,1,.35-.12c-.08.09-.14.18-.12.25s.15-.06.34-.19l.1.74.1-.27c.41.2.8.45,1.2.67,1-.53,2-1.41,3.56-1.42-.47.44-.25.82-.39,1.43-.27-.72-1.18,0-1.9-.22.38.14.24.41.12.5l1.45-.33c-.13.49.21.43.52.7-.07-1,1.13-.46,1.74-.66,0,.34-.24.65-.89.44.58.88,1.19-1,1.78-.17-.17,0-.24-.1-.34,0,.44-.2,1.31.24,1,.48l-.16,0c1,.36,3.24.76,3.61,0a7.5,7.5,0,0,1-.49,1.12c.86-.77,1.74-1.57,2.61-2.31-.35.66-.14,2.52-1.12,2.68a1.24,1.24,0,0,0,1.1.27c-.15-.15-.16-1.14.09-1.14.44,1,.34.54.95,1.43-.21-.22.37-1.25.77-1.1-.11.15-.26,1.1-.44,1.18l1.31-.81c-.31.13-.3.91-.16,1.28,0-.24.87.26,1.16.22l-.35-.36c1.09.48,1.58-1.23,2.7-.81-.21.17-.75,1.26-.23,1.57.43-.47,2-2.28,3.14-2.39l.09.38.89-.1a23,23,0,0,1-3.59,2.42c.35.38,0,.41.65.58.13.36-.49.34-.68.3l1.41.65c.14-.67,1.32-.27,1.44-.82-.6,0-1.2.08-1.81.14a2.06,2.06,0,0,1,2.53-1.06c.18.35-.58,1.07-.63,1.29.21-.17,1.13-.09,1.17.1l-.55.19c.49.44,1.23-.53,1.71.32.23.13.43,1.07.6.71a6.91,6.91,0,0,1,1-3.58,7.7,7.7,0,0,1,1.17,1.6c.2.7-1.07,1.14-.91,1.74.07-.17.37-.3.48-.34.2.24-.29.5.28.62.32-.61,1.09.46.46-.45.6,0,.51.34,1.15.54-.05-.48,1.08-1.19,1.69-1.18a.89.89,0,0,0,0,.53c1.08.47,1.55,1,2.57,1.38,0,.19.45.57.13.76a1,1,0,0,1,.73-.11c.39.79-.73-.19-.53.65.19-.35,1-.19,1.55-.24.08-.63-1-.52-1.53-.46a2.62,2.62,0,0,1,2.62-1.25c.92.14.16.65.35.6,1.53.77,1.9-.83,3,.27.32.71-.38,1-.41,1.4-.76-.08-.92-.74-1.39-.9l.47.46a1.08,1.08,0,0,1-1-.22c.26.62,2.64,1.16,3.68,2.07.29-.08.73-.1.64-.37l-.42-.09c-.19-.55,1-.26.54-.64a2.44,2.44,0,0,1,2,.24l-.09.63c0-.17-.34-.54-.62-.45.41-.12.8,1.23,1.44.62l-.35-.6c.64-.07,1.53-.41,2.1,0-.07-.68-.18,0-.37-.84.06,1-1.63-.71-1.35.41-.15-.95-.67-.66-1-1.56,0,.2.08.45-.43.14a.72.72,0,0,1-.19.11l0,0,0,0s0,0,0,0a.71.71,0,0,1,.16.4c-.44.32-1.3,0-1.68.05-.29-.22.22-.16.13-.43l-.57.16c.12-.44-.58-1,.28-1l-.68-.29a1.6,1.6,0,0,0-1.24-.68c-.28-.22-1,.13-.59-.08l-1.17-.17,0-.11c-1-.47-2.46-.18-3.39-1.4a2.7,2.7,0,0,1-1.38-.4l0-.41c-.51,0-1.26-.89-1.61-.59-.14-1.16-2.18-1.06-3-1.51l-.2.46a6.22,6.22,0,0,0-1.92-.34l-.11.44c-.72.13-1.46-.83-2.45-1.11.12-.14.36,0,.5.14-.84-1.36-2.67-.11-3.51-1.13a.6.6,0,0,1-.64-.21h.08l-.11,0c-.09-.11-.19-.23-.3-.34a1.34,1.34,0,0,0,.24.33,2.73,2.73,0,0,0-.87-.08v-.49h-.07c-.25-.25-.31.15-.25.54a1.89,1.89,0,0,0-.49.17c0-.81-.87,0-1-.86-.32.33-1.62-.13-2,.65,0-.11-.06-.19.11-.15a1.1,1.1,0,0,0-1-.23v-.63l-.94.6c-.36-.49-.49-.75.07-1.08-1.26.42-1,0-2,.52l.13-.37c-.33-.06-1,.33-1.1,0-.58-.89-3.63-1-5.41-2,.14,1.21-.79-.69-1,.18-.06-.29-.3-.49.06-.67-1,.08-1.39-.71-2.21-.09-.06-.3.28-.36.21-.54-.09,0-.35.17-.42,0s.18-.2.36-.29c-1-.14-1.26.67-1.47,1.45-.45-.45-.71-.44-1.16,0-.14-.29-.39-.6.25-.6-.34-.09-2.08-.71-2.21-.09-.09-.17-.49-.12-.59-.06a9.19,9.19,0,0,0-1.62-.29l.2.14c-.42.72-.67.06-1.3.07l0-.07c-1.36-.73-.65.18-2-.62v.48c-.26,1-1.17-.75-2-.46l.26.31c-.48.29-1.09-1.55-1.53-1.74-.09-.1.17-.12.32-.17-1.12-.75-.22.6-1.12.65-.13-.35.3-.84-.29-1-.27-.3-1.83.94-2.58.22.16.27.31.55-.12.71-.63,0-1.61-1.15-2.25-.38a.27.27,0,0,1-.09-.21c-.5.15-1.59.23-1.91.65-.33-1.68-3,.61-2.93-.91l-1.48,0,0-.15a1.57,1.57,0,0,0-1.65.54c-.21-.11,0-.25,0-.33a2.48,2.48,0,0,0-2.69.41l-.11-.5c-.32.28-2-.88-3.34-.32a.37.37,0,0,1,.16-.22c-1.54.55-3.63-1.45-4.22.34l-1,.43c1.3.17-.2.78.33,1.09-.51.09-1.31-.57-.68-.65l.09.09c.24-1-1.61-.34-1.57-1-2.55.05-5-.5-7.44-.49l.28.73-.83,0c-.22-.16-.31-.57.29-.54-.32-.41-1,.36-1,.52-1.17-.28.44-.86.09-.87l-.49.06.11.08c-.39.31-.42.62-1.13.6-.46-.14-.24-.45-.42-.48,0-.05-.06-.07-.28,0l-1,0,.43.56c-.46.3-1,0-.48.64-.74-1-3.93-.25-4.38-.55a3.19,3.19,0,0,1-2.08.43c.21.11.35.76-.34.7.2-1.35-1.28-.53-1.87-1.47.52.62-2,.23-1.13,1.11-.58-.09-.06-.5-.51-.8-1.34.57-3-.21-4.7.05,0,.18.28.43-.07.71l-.93-.84c-.33.11-.26,1-.9.45.1.14.24.36,0,.43-3.35-.7-6.71,1-10.14-.37.47.31.17.36-.17.39.23.07,0,.44.07.67l-1.43-.58c-.22.67-1.5.13-1.61.77l.43-.14c-.54.78.92,1.61.89,2.57.61-.88,1.81,1.16,2.82-.11.25.18-.18.31,0,.53.25-.43.58-.53,1.2-.38l-.06.1c1.72-.19,2.48.18,4.43.34l-.17-.46a1.35,1.35,0,0,1,.72.29c.44-.74-1.17,0-.78-.79.6.93,2.94-.15,3.37.94.64,0-.22-.54.42-.57l.18.29.15-.39a.78.78,0,0,1,.68.66c-.11,0-.29.08-.4.11.56.32,1.53-.2,1.72-.09l-.62-.15c1.73-.37,3.88-.08,5.54-.74l-.13-.22c1.27-.46,1,.21,2.45,0l0,0a1.56,1.56,0,0,1,1-.35c-.35.28.69.49.23.79,1.38-.49.68-.37,1.57-1.23l.23.37a1.25,1.25,0,0,1,1-.64c-.57.34.46.55-.17,1,1.5.77,2.18-.88,2.89.29.65-1-1.3-.54-.92-.77-.33-.32.54-.78,1-.69s.83,1.28,2,1.25c-.12,0-.12.07-.24.07.45.26.87-.37,1.42,0,.3-.63.71,0,.79-.77l-1.09.2c.61-.21,1.18-1.15,2.21-.72a1.65,1.65,0,0,1-.59.5c.3.23.57-.16.89.07-.08.8-1.33.19-2,.81.32.33,1.24-.59.92.27.47-1.1,1.18.12,2-.73l-.05.48c.13-.08.39-.31.63-.3l-.42.63c.65-.54,1.26.44,1.88.15-1.31,0-.3-.57-.85-.91,1.61-.64.93,1.24,2.73,1-.24.07-.91-.28-.53-.5a2.28,2.28,0,0,1,1,.53c1.19-.1-.19-.49.32-.78.41.58.59-.24,1.12-.42v.48c1.36.31.37-1,1.6-.63l-.53.67.64-.17-.14.55a1.62,1.62,0,0,1,1.6-.12.68.68,0,0,1,.71-.88c.4.3-.24.46.62.41-.2.29-.42.67-.79.22,0,.15-.19.3-.23.45.43.34,1.11.1,1.42.1a.73.73,0,0,1-.34-.12l1.26-.64c.19.18,0,.32-.13.46.26,0,.44-.26.81-.3-.11.39-.1.8-.62,1l1.19-.41c.07.17.59.48.43.62.65.25,1.63-.69,2.48-.36a.55.55,0,0,1,.33-.19c.81.13,1.51.64,2.5.14l.51.72c.76-.12-.7-.91.57-1.12.91-.18.3.62.61.83.45-.33,1.27-1,2-.37C1092.52,973.73,1092.32,973.61,1092.06,973.64Zm9.31.44c-.19.08-.58.36-.68.06C1101,973.61,1101.08,973.89,1101.37,974.08Zm14.21.79c-.16.13-.35,0-.55-.21A.73.73,0,0,1,1115.58,974.87Zm39.12,8.36h0C1154.36,982.91,1154.47,983,1154.7,983.23Zm.71.51a.14.14,0,0,0,.11-.17c-.1.09-.28,0-.47-.09C1155.06,983.62,1155.13,983.74,1155.41,983.74Zm-89.52-15,.17.13C1065.69,969.05,1065.79,968.92,1065.89,968.78Z" transform="translate(-649.96 -820.5)"/><path class="cls-1" d="M1113.88,975.25a.83.83,0,0,1,0-.27C1113.77,975.05,1113.75,975.14,1113.88,975.25Z" transform="translate(-649.96 -820.5)"/><path class="cls-1" d="M1086.26,973.61h0l0,.09Z" transform="translate(-649.96 -820.5)"/><path class="cls-1" d="M1141.74,982.84a.72.72,0,0,1-.23-.35C1141.46,982.6,1141.5,982.72,1141.74,982.84Z" transform="translate(-649.96 -820.5)"/><path class="cls-1" d="M1159.87,984.68l-.55-.09a.66.66,0,0,1,.39.33C1159.74,984.81,1159.71,984.62,1159.87,984.68Z" transform="translate(-649.96 -820.5)"/><path class="cls-1" d="M1163.08,989.23c.09,0,.15,0,.25,0l.06-.22C1163.08,988.93,1162.79,989,1163.08,989.23Z" transform="translate(-649.96 -820.5)"/><path class="cls-1" d="M1159.72,986.35c-.11.39.25.4.63.47l-.06,0C1160.61,986.31,1160.17,986.33,1159.72,986.35Z" transform="translate(-649.96 -820.5)"/><path class="cls-1" d="M1160.44,986.84a1.18,1.18,0,0,1,.33.12C1160.9,986.77,1160.65,986.87,1160.44,986.84Z" transform="translate(-649.96 -820.5)"/><path class="cls-1" d="M1156.5,983.89c.13.17.3-.43.33-.24C1157.22,983.25,1155.49,983.77,1156.5,983.89Z" transform="translate(-649.96 -820.5)"/><polygon class="cls-1" points="509.54 167.2 509.6 166.69 509.25 166.98 509.54 167.2"/><path class="cls-1" d="M1156.87,986.23l.51.36c0-.09.11-.1.21-.1C1157.25,986.33,1156.91,986.09,1156.87,986.23Z" transform="translate(-649.96 -820.5)"/><path class="cls-1" d="M1157.59,986.49a.85.85,0,0,0,.48.11A1.42,1.42,0,0,0,1157.59,986.49Z" transform="translate(-649.96 -820.5)"/><polygon class="cls-1" points="508.72 167.03 508.59 166.86 508.21 166.66 508.72 167.03"/><path class="cls-1" d="M1150.86,983.7l-.66-.11c-.13.14,0,.3.25.33S1150.9,983.89,1150.86,983.7Z" transform="translate(-649.96 -820.5)"/><path class="cls-1" d="M1152.21,985.71c-.13-.16-.1-.27-.13-.46l-.25.57Z" transform="translate(-649.96 -820.5)"/><path class="cls-1" d="M1150.37,985.14c-.12.13-1.07.11-.28.38C1150.22,985.38,1150.88,985.49,1150.37,985.14Z" transform="translate(-649.96 -820.5)"/><polygon class="cls-1" points="491.39 160.39 491.55 160.44 491.87 159.47 491.39 160.39"/><path class="cls-1" d="M1132.33,980.51c.67.44.36-.56.93-.06.25-.18-.47-.41-.23-.55C1132.51,980,1132.31,979.81,1132.33,980.51Z" transform="translate(-649.96 -820.5)"/><path class="cls-1" d="M1133,979.9a2,2,0,0,0,.27-.08A.66.66,0,0,0,1133,979.9Z" transform="translate(-649.96 -820.5)"/><polygon class="cls-1" points="385.11 149.11 384.59 148.92 384.94 149.25 385.11 149.11"/><path class="cls-1" d="M1034.15,970.42l-.16-.64-.27.6C1033.83,970.34,1034.05,970.28,1034.15,970.42Z" transform="translate(-649.96 -820.5)"/><path class="cls-1" d="M1102.61,975.51l.05-.15c-.05-.18-.17-.2-.4-.25Z" transform="translate(-649.96 -820.5)"/><polygon class="cls-1" points="445.99 153.91 446.11 153.93 445.94 153.33 445.99 153.91"/><path class="cls-1" d="M1090.26,974.79c.23,0,.51-.08.74,0C1090.49,974.82,1090.24,974.05,1090.26,974.79Z" transform="translate(-649.96 -820.5)"/></svg>