<svg id="Слой_1" data-name="Слой 1" xmlns="http://www.w3.org/2000/svg" viewBox="0 0 852.34 397.54"><defs><style>.cls-1{fill:#060d20;}</style></defs><title>grass</title><path class="cls-1" d="M259.67,3070.35s11.22-115.2-16.83-170.18c0,0,50.49,44.15,48.24,170.18Z" transform="translate(-242.84 -2674.46)"/><path class="cls-1" d="M304.79,3070.35s0-343.61,70.12-395.89c0,0-70.12,150-41.33,395.89Z" transform="translate(-242.84 -2674.46)"/><path class="cls-1" d="M365,3070.35s-38.17-85.53,9.93-144.85c0,0-26.69,84.64,13.29,144.85Z" transform="translate(-242.84 -2674.46)"/><path class="cls-1" d="M396,3072s19.09-42.76-5-72.42c0,0,13.35,42.32-6.64,72.42Z" transform="translate(-242.84 -2674.46)"/><path class="cls-1" d="M410.84,3070.35s9.27-91.43-15.44-159.37c0,0,51.47,65.49,45.3,159.37Z" transform="translate(-242.84 -2674.46)"/><path class="cls-1" d="M469.68,3070.35s47.11-144.75,44.76-358.42c0,0,26.08,162.75.08,358.42Z" transform="translate(-242.84 -2674.46)"/><path class="cls-1" d="M846.5,3070.35s11.22-179.84-16.83-265.66c0,0,50.49,68.92,48.24,265.66Z" transform="translate(-242.84 -2674.46)"/><path class="cls-1" d="M891.62,3070.35s0-301.44,70.12-347.31c0,0-70.12,131.62-41.33,347.31Z" transform="translate(-242.84 -2674.46)"/><path class="cls-1" d="M951.81,3070.35s-38.17-85.53,9.93-144.85c0,0-26.69,84.64,13.29,144.85Z" transform="translate(-242.84 -2674.46)"/><path class="cls-1" d="M997.67,3070.35s9.27-91.43-15.44-159.37c0,0,51.47,65.49,45.3,159.37Z" transform="translate(-242.84 -2674.46)"/><path class="cls-1" d="M1056.51,3070.35s32.32-58.5,30.7-144.85c0,0,17.9,65.77.06,144.85Z" transform="translate(-242.84 -2674.46)"/><path class="cls-1" d="M796.77,3072s32.32-58.5,30.7-144.85c0,0,17.9,65.77.06,144.85Z" transform="translate(-242.84 -2674.46)"/><path class="cls-1" d="M789.1,3070.35s-11.22-115.2,16.83-170.18c0,0-50.49,44.15-48.25,170.18Z" transform="translate(-242.84 -2674.46)"/><path class="cls-1" d="M744,3070.35s0-333.78-70.12-384.56c0,0,70.12,145.73,41.34,384.56Z" transform="translate(-242.84 -2674.46)"/><path class="cls-1" d="M683.78,3070.35s38.18-85.53-9.93-144.85c0,0,26.7,84.64-13.28,144.85Z" transform="translate(-242.84 -2674.46)"/><path class="cls-1" d="M586.66,3072s38.18-85.52-9.93-144.85c0,0,26.7,84.64-13.28,144.85Z" transform="translate(-242.84 -2674.46)"/><path class="cls-1" d="M1042.14,3072s38.18-85.52-9.93-144.85c0,0,26.7,84.64-13.28,144.85Z" transform="translate(-242.84 -2674.46)"/><path class="cls-1" d="M637.92,3070.35s-9.26-121.5,15.45-211.8c0,0-51.48,87-45.3,211.8Z" transform="translate(-242.84 -2674.46)"/><path class="cls-1" d="M467.31,3070.35s-5.76-56.81,9.6-99c0,0-32,40.7-28.15,99Z" transform="translate(-242.84 -2674.46)"/><path class="cls-1" d="M579.09,3070.35s-32.32-58.5-30.71-144.85c0,0-17.89,65.77-.06,144.85Z" transform="translate(-242.84 -2674.46)"/></svg>