<svg id="Слой_3" data-name="Слой 3" xmlns="http://www.w3.org/2000/svg" viewBox="0 0 852.34 396.88"><defs><style>.cls-1{fill:#060d20;}</style></defs><title>grass</title><path class="cls-1" d="M279.11,3071.37s11.22-115.2-16.83-170.18c0,0,50.49,44.15,48.25,170.18Z" transform="translate(-262.28 -2675.48)"/><path class="cls-1" d="M324.23,3071.37s0-343.61,70.13-395.89c0,0-70.13,150-41.34,395.89Z" transform="translate(-262.28 -2675.48)"/><path class="cls-1" d="M384.43,3072.37s-38.18-85.53,9.93-144.85c0,0-26.7,84.64,13.28,144.85Z" transform="translate(-262.28 -2675.48)"/><path class="cls-1" d="M415.46,3072s19.08-42.76-5-72.43c0,0,13.35,42.33-6.64,72.43Z" transform="translate(-262.28 -2675.48)"/><path class="cls-1" d="M430.29,3072.37s9.26-91.43-15.45-159.37c0,0,51.48,65.49,45.3,159.37Z" transform="translate(-262.28 -2675.48)"/><path class="cls-1" d="M489.12,3072.37s47.11-144.75,44.76-358.42c0,0,26.08,162.75.08,358.42Z" transform="translate(-262.28 -2675.48)"/><path class="cls-1" d="M865.94,3072.37s11.22-179.84-16.83-265.67c0,0,50.49,68.93,48.24,265.67Z" transform="translate(-262.28 -2675.48)"/><path class="cls-1" d="M911.06,3072.37s0-301.44,70.12-347.31c0,0-70.12,131.61-41.33,347.31Z" transform="translate(-262.28 -2675.48)"/><path class="cls-1" d="M971.25,3072.37s-38.17-85.53,9.93-144.85c0,0-26.69,84.64,13.29,144.85Z" transform="translate(-262.28 -2675.48)"/><path class="cls-1" d="M1017.11,3072.37s9.27-91.43-15.44-159.37c0,0,51.47,65.49,45.3,159.37Z" transform="translate(-262.28 -2675.48)"/><path class="cls-1" d="M1076,3072.37s32.32-58.5,30.7-144.85c0,0,17.9,65.77.06,144.85Z" transform="translate(-262.28 -2675.48)"/><path class="cls-1" d="M816.21,3072s32.32-58.5,30.7-144.85c0,0,17.9,65.77.06,144.85Z" transform="translate(-262.28 -2675.48)"/><path class="cls-1" d="M808.54,3072.37s-11.22-115.2,16.83-170.18c0,0-50.49,44.15-48.24,170.18Z" transform="translate(-262.28 -2675.48)"/><path class="cls-1" d="M763.42,3072.37s0-333.78-70.13-384.57c0,0,70.13,145.74,41.34,384.57Z" transform="translate(-262.28 -2675.48)"/><path class="cls-1" d="M703.23,3072.37s38.17-85.53-9.93-144.85c0,0,26.69,84.64-13.29,144.85Z" transform="translate(-262.28 -2675.48)"/><path class="cls-1" d="M606.1,3072s38.18-85.53-9.93-144.85c0,0,26.7,84.64-13.28,144.85Z" transform="translate(-262.28 -2675.48)"/><path class="cls-1" d="M1061.58,3072s38.18-85.53-9.93-144.85c0,0,26.7,84.64-13.28,144.85Z" transform="translate(-262.28 -2675.48)"/><path class="cls-1" d="M658.37,3072.37s-9.27-121.5,15.44-211.8c0,0-51.47,87-45.3,211.8Z" transform="translate(-262.28 -2675.48)"/><path class="cls-1" d="M486.75,3072.37s-5.75-56.82,9.6-99c0,0-32,40.7-28.15,99Z" transform="translate(-262.28 -2675.48)"/><path class="cls-1" d="M598.53,3072.37s-32.32-58.5-30.7-144.85c0,0-17.9,65.77-.06,144.85Z" transform="translate(-262.28 -2675.48)"/></svg>