<svg id="Layer_1" data-name="Layer 1" xmlns="http://www.w3.org/2000/svg" viewBox="0 0 183.06 74.1"><defs><style>.cls-1{fill:#c8df9a;}.cls-2{fill:#81c0ce;}.cls-3{fill:#246775;}.cls-4{fill:#231f20;}.cls-5{fill:none;stroke:#231f20;stroke-linecap:round;stroke-linejoin:round;stroke-width:2px;}</style></defs><title>logo</title><circle class="cls-1" cx="42.96" cy="24.3" r="12.96"/><circle class="cls-2" cx="89.79" cy="12.96" r="12.96"/><circle class="cls-3" cx="150.83" cy="18.07" r="12.96"/><path class="cls-4" d="M50.76,170.94a1.07,1.07,0,0,1-1-.57,1.15,1.15,0,0,1,0-1.12l8.82-20.93a1.15,1.15,0,0,1,1.11-.82,1.17,1.17,0,0,1,1.14.82l8.85,21a1.15,1.15,0,0,1-1,1.65,1.13,1.13,0,0,1-.65-.19,1,1,0,0,1-.43-.54l-8.28-20h1l-8.34,20a1,1,0,0,1-.44.54A1.1,1.1,0,0,1,50.76,170.94Z" transform="translate(-49.58 -103.86)"/><path class="cls-4" d="M80,171.12a8.05,8.05,0,0,1-3.81-.89,6.5,6.5,0,0,1-2.66-2.59,8.31,8.31,0,0,1-1-4.18v-7.79a1.13,1.13,0,0,1,1.14-1.14,1.14,1.14,0,0,1,.84.33,1.1,1.1,0,0,1,.33.81v7.79a6,6,0,0,0,.7,3.07,4.5,4.5,0,0,0,1.92,1.8,6.14,6.14,0,0,0,2.75.6,6,6,0,0,0,2.65-.57,4.69,4.69,0,0,0,1.88-1.57,3.8,3.8,0,0,0,.69-2.25h1.65a6.72,6.72,0,0,1-3.57,5.72A7.36,7.36,0,0,1,80,171.12Zm6.6-.18a1.13,1.13,0,0,1-.83-.32,1.16,1.16,0,0,1-.31-.85v-14.1a1.07,1.07,0,0,1,1.14-1.14,1.16,1.16,0,0,1,.84.31,1.1,1.1,0,0,1,.33.83v14.1a1.13,1.13,0,0,1-.33.85A1.17,1.17,0,0,1,86.64,170.94Z" transform="translate(-49.58 -103.86)"/><path class="cls-4" d="M100.53,171.08A8.12,8.12,0,0,1,96.31,170a7.88,7.88,0,0,1-2.91-3,8.46,8.46,0,0,1-1.06-4.25,8.86,8.86,0,0,1,1-4.29,7.8,7.8,0,0,1,2.79-3,7.59,7.59,0,0,1,4.08-1.09,7.87,7.87,0,0,1,3.37.72,7.63,7.63,0,0,1,2.72,2.15.84.84,0,0,1,.24.77,1.2,1.2,0,0,1-.51.71.93.93,0,0,1-.74.16,1.17,1.17,0,0,1-.7-.43,5.58,5.58,0,0,0-4.38-2,5.41,5.41,0,0,0-3,.81,5.5,5.5,0,0,0-2,2.21,7.22,7.22,0,0,0-.7,3.25,6.73,6.73,0,0,0,.75,3.21,5.61,5.61,0,0,0,2.1,2.22,6,6,0,0,0,3.09.81,6.91,6.91,0,0,0,2.14-.32,4.84,4.84,0,0,0,1.73-1,1.32,1.32,0,0,1,.75-.33,1,1,0,0,1,.72.24,1.17,1.17,0,0,1,.4.75.81.81,0,0,1-.28.72A7.76,7.76,0,0,1,100.53,171.08Z" transform="translate(-49.58 -103.86)"/><path class="cls-4" d="M112.26,170.94a1.17,1.17,0,0,1-.86-.32,1.11,1.11,0,0,1-.31-.83V155.7a1.16,1.16,0,0,1,.31-.84,1.14,1.14,0,0,1,.86-.33,1.08,1.08,0,0,1,.82.33,1.17,1.17,0,0,1,.32.84v14.09a1.1,1.1,0,0,1-1.14,1.15Zm10.53,0a1.17,1.17,0,0,1-.84-.32,1.08,1.08,0,0,1-.33-.83v-8.63a4.9,4.9,0,0,0-1.11-3.38,3.64,3.64,0,0,0-2.85-1.24,4.11,4.11,0,0,0-3.06,1.21,4.32,4.32,0,0,0-1.2,3.17h-1.65a7.64,7.64,0,0,1,.85-3.41,6,6,0,0,1,2.18-2.32,6.23,6.23,0,0,1,6.25,0,5.71,5.71,0,0,1,2.13,2.37,8,8,0,0,1,.77,3.6v8.63a1.1,1.1,0,0,1-1.14,1.15Zm10.47,0a1.17,1.17,0,0,1-.84-.32,1.08,1.08,0,0,1-.33-.83v-8.63a4.9,4.9,0,0,0-1.11-3.38,3.64,3.64,0,0,0-2.85-1.24,4,4,0,0,0-3,1.24,4.5,4.5,0,0,0-1.15,3.32h-2.07a7.48,7.48,0,0,1,.87-3.54,6,6,0,0,1,2.31-2.37,6.59,6.59,0,0,1,3.33-.84,5.84,5.84,0,0,1,3.13.84,5.71,5.71,0,0,1,2.13,2.37,8,8,0,0,1,.77,3.6v8.63a1.1,1.1,0,0,1-1.14,1.15Z" transform="translate(-49.58 -103.86)"/><path class="cls-4" d="M147,171.08a8.39,8.39,0,0,1-4.29-1.08,7.82,7.82,0,0,1-3-3,9.12,9.12,0,0,1,0-8.61,7.84,7.84,0,0,1,3-3,8.49,8.49,0,0,1,4.29-1.08,8.39,8.39,0,0,1,4.27,1.08,7.89,7.89,0,0,1,3,3,8.75,8.75,0,0,1,1.11,4.32,8.4,8.4,0,0,1-1.1,4.29,8,8,0,0,1-3,3A8.29,8.29,0,0,1,147,171.08Zm0-2.09a6.15,6.15,0,0,0,3.12-.81,5.76,5.76,0,0,0,2.16-2.22,6.52,6.52,0,0,0,.78-3.21,6.6,6.6,0,0,0-.78-3.23,5.72,5.72,0,0,0-2.16-2.23,6.41,6.41,0,0,0-6.24,0,5.84,5.84,0,0,0-2.18,2.23,6.5,6.5,0,0,0-.79,3.23,6.42,6.42,0,0,0,.79,3.21,5.88,5.88,0,0,0,2.18,2.22A6.15,6.15,0,0,0,147,169Z" transform="translate(-49.58 -103.86)"/><path class="cls-4" d="M164.82,171.08a8.63,8.63,0,0,1-3.18-.54A5.22,5.22,0,0,1,159.4,169a3.54,3.54,0,0,1-.82-2.34,3.67,3.67,0,0,1,.61-2.07,5.12,5.12,0,0,1,2-1.64,14.77,14.77,0,0,1,3.59-1.18,6.2,6.2,0,0,0,2.77-1.16,2.32,2.32,0,0,0,.77-1.78,2.08,2.08,0,0,0-.9-1.73,4.07,4.07,0,0,0-2.49-.67,6.11,6.11,0,0,0-2.33.43,4.46,4.46,0,0,0-1.75,1.24,1.37,1.37,0,0,1-.75.46,1,1,0,0,1-.72-.09,1.06,1.06,0,0,1-.57-.71A.89.89,0,0,1,159,157a6.26,6.26,0,0,1,2.37-1.89,8,8,0,0,1,3.51-.72,7.75,7.75,0,0,1,2.94.52,4.44,4.44,0,0,1,2,1.55,4.19,4.19,0,0,1,.72,2.49,3.83,3.83,0,0,1-1.2,2.77,8.07,8.07,0,0,1-4,1.85,9.86,9.86,0,0,0-3.51,1.29,2.17,2.17,0,0,0-1,1.8,1.92,1.92,0,0,0,.94,1.75,5.71,5.71,0,0,0,2.93.59,8.86,8.86,0,0,0,2.68-.37,4.13,4.13,0,0,0,2-1.25,1.43,1.43,0,0,1,.72-.44,1,1,0,0,1,.84.23,1.05,1.05,0,0,1,.42.75,1,1,0,0,1-.3.78,6.94,6.94,0,0,1-2.76,1.75A10,10,0,0,1,164.82,171.08Z" transform="translate(-49.58 -103.86)"/><path class="cls-4" d="M176.49,178a1.17,1.17,0,0,1-.86-.32,1.14,1.14,0,0,1-.31-.85V162.62a8.43,8.43,0,0,1,1.12-4.21,8,8,0,0,1,3-2.95,8.31,8.31,0,0,1,4.22-1.08,8.4,8.4,0,0,1,4.29,1.09,8.07,8.07,0,0,1,3,3,8.38,8.38,0,0,1,1.1,4.29,8.46,8.46,0,0,1-1.07,4.25,7.84,7.84,0,0,1-7,4.08,7.76,7.76,0,0,1-3.65-.85,7.15,7.15,0,0,1-2.62-2.27v8.83a1.15,1.15,0,0,1-.32.85A1.11,1.11,0,0,1,176.49,178Zm7.14-9a6.15,6.15,0,0,0,3.12-.81,5.84,5.84,0,0,0,2.17-2.24,6.8,6.8,0,0,0,0-6.4,5.9,5.9,0,0,0-5.29-3.06,5.87,5.87,0,0,0-5.25,3.06,7,7,0,0,0,0,6.4,5.74,5.74,0,0,0,2.16,2.24A6.09,6.09,0,0,0,183.63,169Z" transform="translate(-49.58 -103.86)"/><path class="cls-4" d="M203.76,171.08a7.87,7.87,0,0,1-7-4.08,8.46,8.46,0,0,1-1.06-4.25,8.37,8.37,0,0,1,1.09-4.29,8.09,8.09,0,0,1,3-3,8.34,8.34,0,0,1,4.26-1.09,8.24,8.24,0,0,1,4.24,1.09,8.11,8.11,0,0,1,3,3,8.6,8.6,0,0,1,1.13,4.29l-.93.71a7.57,7.57,0,0,1-1,3.89,7.45,7.45,0,0,1-2.73,2.73A7.61,7.61,0,0,1,203.76,171.08ZM204,169a6,6,0,0,0,3.1-.81,5.89,5.89,0,0,0,2.16-2.24,6.8,6.8,0,0,0,0-6.4,6,6,0,0,0-2.16-2.24,6.25,6.25,0,0,0-6.19,0,6.11,6.11,0,0,0-2.19,2.24,6.73,6.73,0,0,0,0,6.4,6,6,0,0,0,2.19,2.24A6.09,6.09,0,0,0,204,169Zm7.17,1.95a1.17,1.17,0,0,1-.84-.32,1.08,1.08,0,0,1-.33-.83v-5.12l.57-2.38,1.77.46v7a1.08,1.08,0,0,1-.33.83A1.17,1.17,0,0,1,211.17,170.94Z" transform="translate(-49.58 -103.86)"/><path class="cls-4" d="M224.07,171.08a8.19,8.19,0,0,1-4.2-1.06,7.54,7.54,0,0,1-2.87-3,8.84,8.84,0,0,1-1-4.32,8.61,8.61,0,0,1,1.08-4.35,7.75,7.75,0,0,1,3-3,9.23,9.23,0,0,1,8.59,0,7.67,7.67,0,0,1,2.94,3,8.94,8.94,0,0,1,1.1,4.35l-1.35.71a8.17,8.17,0,0,1-.93,3.95,6.89,6.89,0,0,1-2.57,2.7A7.13,7.13,0,0,1,224.07,171.08Zm.3,6.34a9.34,9.34,0,0,1-4.17-.89,8.26,8.26,0,0,1-3-2.41,1,1,0,0,1-.29-.79.93.93,0,0,1,.44-.68,1.12,1.12,0,0,1,.87-.19,1.22,1.22,0,0,1,.75.46,6.49,6.49,0,0,0,2.23,1.74,7.35,7.35,0,0,0,3.17.66,5.76,5.76,0,0,0,5.17-3.09,7.15,7.15,0,0,0,.8-3.45v-4.57l.87-1.73,1.41.27v6.12a8.78,8.78,0,0,1-1.08,4.36,8.15,8.15,0,0,1-2.94,3.06A8.07,8.07,0,0,1,224.37,177.42Zm-.06-8.43a6.1,6.1,0,0,0,3.13-.8,5.68,5.68,0,0,0,2.15-2.2,6.58,6.58,0,0,0,.78-3.24,6.69,6.69,0,0,0-.78-3.26,5.67,5.67,0,0,0-2.15-2.22,6.09,6.09,0,0,0-3.13-.79,6.19,6.19,0,0,0-3.15.79,5.63,5.63,0,0,0-2.16,2.22,6.69,6.69,0,0,0-.78,3.26A6.58,6.58,0,0,0,219,166a5.64,5.64,0,0,0,2.16,2.2A6.2,6.2,0,0,0,224.31,169Z" transform="translate(-49.58 -103.86)"/><line class="cls-5" x1="49.66" y1="7.47" x2="48.48" y2="39.12"/><path class="cls-5" d="M154.1,147.6V130.24l-13-18.3-13.45,18.3V147.6H105.47c12.47-12.48,0-27.68,0-27.68l-6.22-8.59L91.6,121s-12.53,15.69,0,26.64H74.85" transform="translate(-49.58 -103.86)"/><line class="cls-5" x1="48.48" y1="29.57" x2="42.96" y2="22.25"/><line class="cls-5" x1="48.63" y1="34.98" x2="53.7" y2="31.02"/><line class="cls-5" x1="133.93" y1="7.47" x2="135.11" y2="39.12"/><path class="cls-5" d="M155.16,147.6h22.13c-12.47-12.48,0-27.68,0-27.68l6.22-8.59,7.65,9.63s12.53,15.69,0,26.64h38" transform="translate(-49.58 -103.86)"/><path class="cls-5" d="M100.3,111.33" transform="translate(-49.58 -103.86)"/><line class="cls-5" x1="135.11" y1="29.57" x2="140.63" y2="22.25"/><line class="cls-5" x1="134.96" y1="34.98" x2="129.89" y2="31.02"/></svg>