<svg width="583" height="127" viewBox="0 0 583 127" fill="none" xmlns="http://www.w3.org/2000/svg">
<g clip-path="url(#clip0)">
<g filter="url(#filter0_f)">
<path d="M119.873 57.6255C125.169 57.6255 129.463 53.3673 129.463 48.1145C129.463 42.8617 125.169 38.6035 119.873 38.6035C114.577 38.6035 110.283 42.8617 110.283 48.1145C110.283 53.3673 114.577 57.6255 119.873 57.6255Z" fill="#DDCD4A"/>
</g>
<g filter="url(#filter1_f)">
<path d="M139.334 50.0727C144.63 50.0727 148.924 45.8145 148.924 40.5617C148.924 35.3089 144.63 31.0507 139.334 31.0507C134.038 31.0507 129.744 35.3089 129.744 40.5617C129.744 45.8145 134.038 50.0727 139.334 50.0727Z" fill="#DDCD4A"/>
</g>
<g filter="url(#filter2_f)">
<path d="M161.615 52.0309C166.911 52.0309 171.205 47.7726 171.205 42.5199C171.205 37.2671 166.911 33.0089 161.615 33.0089C156.319 33.0089 152.025 37.2671 152.025 42.5199C152.025 47.7726 156.319 52.0309 161.615 52.0309Z" fill="#DDCD4A"/>
</g>
<g filter="url(#filter3_f)">
<path d="M314.769 43.6388C320.066 43.6388 324.359 39.3806 324.359 34.1278C324.359 28.875 320.066 24.6168 314.769 24.6168C309.473 24.6168 305.18 28.875 305.18 34.1278C305.18 39.3806 309.473 43.6388 314.769 43.6388Z" fill="#DDCD4A"/>
</g>
<g filter="url(#filter4_f)">
<path d="M314.769 64.3392C320.066 64.3392 324.359 60.081 324.359 54.8282C324.359 49.5754 320.066 45.3172 314.769 45.3172C309.473 45.3172 305.18 49.5754 305.18 54.8282C305.18 60.081 309.473 64.3392 314.769 64.3392Z" fill="#DDCD4A"/>
</g>
<g filter="url(#filter5_f)">
<path d="M314.769 85.0397C320.066 85.0397 324.359 80.7814 324.359 75.5287C324.359 70.2759 320.066 66.0176 314.769 66.0176C309.473 66.0176 305.18 70.2759 305.18 75.5287C305.18 80.7814 309.473 85.0397 314.769 85.0397Z" fill="#DDCD4A"/>
</g>
<g filter="url(#filter6_f)">
<path d="M338.18 85.5991C343.476 85.5991 347.769 81.3408 347.769 76.088C347.769 70.8353 343.476 66.577 338.18 66.577C332.883 66.577 328.59 70.8353 328.59 76.088C328.59 81.3408 332.883 85.5991 338.18 85.5991Z" fill="#DDCD4A"/>
</g>
<g filter="url(#filter7_f)">
<path d="M361.59 85.5991C366.886 85.5991 371.179 81.3408 371.179 76.088C371.179 70.8353 366.886 66.577 361.59 66.577C356.293 66.577 352 70.8353 352 76.088C352 81.3408 356.293 85.5991 361.59 85.5991Z" fill="#DDCD4A"/>
</g>
<g filter="url(#filter8_f)">
<path d="M314.769 106.02C320.066 106.02 324.359 101.762 324.359 96.5088C324.359 91.256 320.066 86.9978 314.769 86.9978C309.473 86.9978 305.18 91.256 305.18 96.5088C305.18 101.762 309.473 106.02 314.769 106.02Z" fill="#DDCD4A"/>
</g>
<g filter="url(#filter9_f)">
<path d="M314.769 126.441C320.066 126.441 324.359 122.182 324.359 116.93C324.359 111.677 320.066 107.419 314.769 107.419C309.473 107.419 305.18 111.677 305.18 116.93C305.18 122.182 309.473 126.441 314.769 126.441Z" fill="#DDCD4A"/>
</g>
<g filter="url(#filter10_f)">
<path d="M383.873 44.1982C389.169 44.1982 393.463 39.9399 393.463 34.6872C393.463 29.4344 389.169 25.1761 383.873 25.1761C378.577 25.1761 374.283 29.4344 374.283 34.6872C374.283 39.9399 378.577 44.1982 383.873 44.1982Z" fill="#DDCD4A"/>
</g>
<g filter="url(#filter11_f)">
<path d="M383.873 64.619C389.169 64.619 393.463 60.3607 393.463 55.1079C393.463 49.8552 389.169 45.5969 383.873 45.5969C378.577 45.5969 374.283 49.8552 374.283 55.1079C374.283 60.3607 378.577 64.619 383.873 64.619Z" fill="#DDCD4A"/>
</g>
<g filter="url(#filter12_f)">
<path d="M383.873 85.3194C389.169 85.3194 393.463 81.0612 393.463 75.8084C393.463 70.5556 389.169 66.2974 383.873 66.2974C378.577 66.2974 374.283 70.5556 374.283 75.8084C374.283 81.0612 378.577 85.3194 383.873 85.3194Z" fill="#DDCD4A"/>
</g>
<g filter="url(#filter13_f)">
<path d="M421.949 85.5991C427.245 85.5991 431.539 81.3408 431.539 76.088C431.539 70.8353 427.245 66.577 421.949 66.577C416.653 66.577 412.359 70.8353 412.359 76.088C412.359 81.3408 416.653 85.5991 421.949 85.5991Z" fill="#DDCD4A"/>
</g>
<g filter="url(#filter14_f)">
<path d="M442.82 85.5991C448.116 85.5991 452.41 81.3408 452.41 76.088C452.41 70.8353 448.116 66.577 442.82 66.577C437.524 66.577 433.23 70.8353 433.23 76.088C433.23 81.3408 437.524 85.5991 442.82 85.5991Z" fill="#DDCD4A"/>
</g>
<g filter="url(#filter15_f)">
<path d="M463.41 85.5991C468.706 85.5991 473 81.3408 473 76.088C473 70.8353 468.706 66.577 463.41 66.577C458.114 66.577 453.82 70.8353 453.82 76.088C453.82 81.3408 458.114 85.5991 463.41 85.5991Z" fill="#DDCD4A"/>
</g>
<g filter="url(#filter16_f)">
<path d="M484.281 85.5991C489.577 85.5991 493.871 81.3408 493.871 76.088C493.871 70.8353 489.577 66.577 484.281 66.577C478.985 66.577 474.691 70.8353 474.691 76.088C474.691 81.3408 478.985 85.5991 484.281 85.5991Z" fill="#DDCD4A"/>
</g>
<g filter="url(#filter17_f)">
<path d="M485.41 64.3392C490.706 64.3392 495 60.081 495 54.8282C495 49.5754 490.706 45.3172 485.41 45.3172C480.114 45.3172 475.82 49.5754 475.82 54.8282C475.82 60.081 480.114 64.3392 485.41 64.3392Z" fill="#DDCD4A"/>
</g>
<g filter="url(#filter18_f)">
<path d="M468.205 50.0727C473.501 50.0727 477.795 45.8145 477.795 40.5617C477.795 35.3089 473.501 31.0507 468.205 31.0507C462.909 31.0507 458.615 35.3089 458.615 40.5617C458.615 45.8145 462.909 50.0727 468.205 50.0727Z" fill="#DDCD4A"/>
</g>
<g filter="url(#filter19_f)">
<path d="M444.232 50.3524C449.529 50.3524 453.822 46.0942 453.822 40.8414C453.822 35.5886 449.529 31.3304 444.232 31.3304C438.936 31.3304 434.643 35.5886 434.643 40.8414C434.643 46.0942 438.936 50.3524 444.232 50.3524Z" fill="#DDCD4A"/>
</g>
<g filter="url(#filter20_f)">
<path d="M423.641 63.2203C428.937 63.2203 433.23 58.9621 433.23 53.7093C433.23 48.4565 428.937 44.1982 423.641 44.1982C418.344 44.1982 414.051 48.4565 414.051 53.7093C414.051 58.9621 418.344 63.2203 423.641 63.2203Z" fill="#DDCD4A"/>
</g>
<g filter="url(#filter21_f)">
<path d="M421.949 107.978C427.245 107.978 431.539 103.72 431.539 98.467C431.539 93.2142 427.245 88.9559 421.949 88.9559C416.653 88.9559 412.359 93.2142 412.359 98.467C412.359 103.72 416.653 107.978 421.949 107.978Z" fill="#DDCD4A"/>
</g>
<g filter="url(#filter22_f)">
<path d="M438.308 120.846C443.605 120.846 447.898 116.588 447.898 111.335C447.898 106.082 443.605 101.824 438.308 101.824C433.012 101.824 428.719 106.082 428.719 111.335C428.719 116.588 433.012 120.846 438.308 120.846Z" fill="#DDCD4A"/>
</g>
<g filter="url(#filter23_f)">
<path d="M460.592 126.441C465.888 126.441 470.181 122.182 470.181 116.93C470.181 111.677 465.888 107.419 460.592 107.419C455.295 107.419 451.002 111.677 451.002 116.93C451.002 122.182 455.295 126.441 460.592 126.441Z" fill="#DDCD4A"/>
</g>
<g filter="url(#filter24_f)">
<path d="M438.308 19.022C443.605 19.022 447.898 14.7638 447.898 9.51101C447.898 4.25823 443.605 0 438.308 0C433.012 0 428.719 4.25823 428.719 9.51101C428.719 14.7638 433.012 19.022 438.308 19.022Z" fill="#DDCD4A"/>
</g>
<g filter="url(#filter25_f)">
<path d="M473 19.022C478.296 19.022 482.59 14.7638 482.59 9.51101C482.59 4.25823 478.296 0 473 0C467.704 0 463.41 4.25823 463.41 9.51101C463.41 14.7638 467.704 19.022 473 19.022Z" fill="#DDCD4A"/>
</g>
<g filter="url(#filter26_f)">
<path d="M481.18 119.447C486.476 119.447 490.769 115.189 490.769 109.936C490.769 104.683 486.476 100.425 481.18 100.425C475.883 100.425 471.59 104.683 471.59 109.936C471.59 115.189 475.883 119.447 481.18 119.447Z" fill="#DDCD4A"/>
</g>
<g filter="url(#filter27_f)">
<path d="M383.873 106.299C389.169 106.299 393.463 102.041 393.463 96.7885C393.463 91.5357 389.169 87.2775 383.873 87.2775C378.577 87.2775 374.283 91.5357 374.283 96.7885C374.283 102.041 378.577 106.299 383.873 106.299Z" fill="#DDCD4A"/>
</g>
<g filter="url(#filter28_f)">
<path d="M383.873 127C389.169 127 393.463 122.742 393.463 117.489C393.463 112.236 389.169 107.978 383.873 107.978C378.577 107.978 374.283 112.236 374.283 117.489C374.283 122.742 378.577 127 383.873 127Z" fill="#DDCD4A"/>
</g>
<g filter="url(#filter29_f)">
<path d="M522.359 43.6388C527.656 43.6388 531.949 39.3806 531.949 34.1278C531.949 28.875 527.656 24.6168 522.359 24.6168C517.063 24.6168 512.77 28.875 512.77 34.1278C512.77 39.3806 517.063 43.6388 522.359 43.6388Z" fill="#DDCD4A"/>
</g>
<g filter="url(#filter30_f)">
<path d="M522.359 64.3392C527.656 64.3392 531.949 60.081 531.949 54.8282C531.949 49.5754 527.656 45.3172 522.359 45.3172C517.063 45.3172 512.77 49.5754 512.77 54.8282C512.77 60.081 517.063 64.3392 522.359 64.3392Z" fill="#DDCD4A"/>
</g>
<g filter="url(#filter31_f)">
<path d="M522.359 84.7599C527.656 84.7599 531.949 80.5016 531.949 75.2489C531.949 69.9961 527.656 65.7379 522.359 65.7379C517.063 65.7379 512.77 69.9961 512.77 75.2489C512.77 80.5016 517.063 84.7599 522.359 84.7599Z" fill="#DDCD4A"/>
</g>
<g filter="url(#filter32_f)">
<path d="M522.359 105.74C527.656 105.74 531.949 101.482 531.949 96.2292C531.949 90.9764 527.656 86.7181 522.359 86.7181C517.063 86.7181 512.77 90.9764 512.77 96.2292C512.77 101.482 517.063 105.74 522.359 105.74Z" fill="#DDCD4A"/>
</g>
<g filter="url(#filter33_f)">
<path d="M522.359 126.441C527.656 126.441 531.949 122.182 531.949 116.93C531.949 111.677 527.656 107.419 522.359 107.419C517.063 107.419 512.77 111.677 512.77 116.93C512.77 122.182 517.063 126.441 522.359 126.441Z" fill="#DDCD4A"/>
</g>
<g filter="url(#filter34_f)">
<path d="M543.512 87.2775C548.808 87.2775 553.101 83.0193 553.101 77.7665C553.101 72.5137 548.808 68.2555 543.512 68.2555C538.215 68.2555 533.922 72.5137 533.922 77.7665C533.922 83.0193 538.215 87.2775 543.512 87.2775Z" fill="#DDCD4A"/>
</g>
<g filter="url(#filter35_f)">
<path d="M557.898 70.4935C563.195 70.4935 567.488 66.2352 567.488 60.9824C567.488 55.7297 563.195 51.4714 557.898 51.4714C552.602 51.4714 548.309 55.7297 548.309 60.9824C548.309 66.2352 552.602 70.4935 557.898 70.4935Z" fill="#DDCD4A"/>
</g>
<g filter="url(#filter36_f)">
<path d="M559.59 103.222C564.886 103.222 569.18 98.9642 569.18 93.7115C569.18 88.4587 564.886 84.2004 559.59 84.2004C554.293 84.2004 550 88.4587 550 93.7115C550 98.9642 554.293 103.222 559.59 103.222Z" fill="#DDCD4A"/>
</g>
<g filter="url(#filter37_f)">
<path d="M573.693 54.2687C578.99 54.2687 583.283 50.0104 583.283 44.7577C583.283 39.5049 578.99 35.2466 573.693 35.2466C568.397 35.2466 564.104 39.5049 564.104 44.7577C564.104 50.0104 568.397 54.2687 573.693 54.2687Z" fill="#DDCD4A"/>
</g>
<g filter="url(#filter38_f)">
<path d="M573.693 121.405C578.99 121.405 583.283 117.147 583.283 111.894C583.283 106.641 578.99 102.383 573.693 102.383C568.397 102.383 564.104 106.641 564.104 111.894C564.104 117.147 568.397 121.405 573.693 121.405Z" fill="#DDCD4A"/>
</g>
<g filter="url(#filter39_f)">
<path d="M167.82 71.0528C173.116 71.0528 177.41 66.7946 177.41 61.5418C177.41 56.289 173.116 52.0308 167.82 52.0308C162.524 52.0308 158.23 56.289 158.23 61.5418C158.23 66.7946 162.524 71.0528 167.82 71.0528Z" fill="#DDCD4A"/>
</g>
<g filter="url(#filter40_f)">
<path d="M152.025 86.9977C157.322 86.9977 161.615 82.7395 161.615 77.4867C161.615 72.2339 157.322 67.9757 152.025 67.9757C146.729 67.9757 142.436 72.2339 142.436 77.4867C142.436 82.7395 146.729 86.9977 152.025 86.9977Z" fill="#DDCD4A"/>
</g>
<g filter="url(#filter41_f)">
<path d="M129.461 91.4735C134.757 91.4735 139.051 87.2153 139.051 81.9625C139.051 76.7098 134.757 72.4515 129.461 72.4515C124.165 72.4515 119.871 76.7098 119.871 81.9625C119.871 87.2153 124.165 91.4735 129.461 91.4735Z" fill="#DDCD4A"/>
</g>
<g filter="url(#filter42_f)">
<path d="M114.795 108.537C120.091 108.537 124.385 104.279 124.385 99.0265C124.385 93.7737 120.091 89.5154 114.795 89.5154C109.499 89.5154 105.205 93.7737 105.205 99.0265C105.205 104.279 109.499 108.537 114.795 108.537Z" fill="#DDCD4A"/>
</g>
<g filter="url(#filter43_f)">
<path d="M129.744 123.363C135.04 123.363 139.334 119.105 139.334 113.852C139.334 108.6 135.04 104.341 129.744 104.341C124.448 104.341 120.154 108.6 120.154 113.852C120.154 119.105 124.448 123.363 129.744 123.363Z" fill="#DDCD4A"/>
</g>
<g filter="url(#filter44_f)">
<path d="M152.025 126.161C157.322 126.161 161.615 121.903 161.615 116.65C161.615 111.397 157.322 107.139 152.025 107.139C146.729 107.139 142.436 111.397 142.436 116.65C142.436 121.903 146.729 126.161 152.025 126.161Z" fill="#DDCD4A"/>
</g>
<g filter="url(#filter45_f)">
<path d="M171.205 116.65C176.501 116.65 180.795 112.391 180.795 107.139C180.795 101.886 176.501 97.6277 171.205 97.6277C165.909 97.6277 161.615 101.886 161.615 107.139C161.615 112.391 165.909 116.65 171.205 116.65Z" fill="#DDCD4A"/>
</g>
<g filter="url(#filter46_f)">
<path d="M25.3847 52.0309C30.6809 52.0309 34.9744 47.7726 34.9744 42.5199C34.9744 37.2671 30.6809 33.0089 25.3847 33.0089C20.0884 33.0089 15.7949 37.2671 15.7949 42.5199C15.7949 47.7726 20.0884 52.0309 25.3847 52.0309Z" fill="#DDCD4A"/>
</g>
<g filter="url(#filter47_f)">
<path d="M12.4101 71.0528C17.7063 71.0528 21.9998 66.7946 21.9998 61.5418C21.9998 56.289 17.7063 52.0308 12.4101 52.0308C7.11379 52.0308 2.82031 56.289 2.82031 61.5418C2.82031 66.7946 7.11379 71.0528 12.4101 71.0528Z" fill="#DDCD4A"/>
</g>
<g filter="url(#filter48_f)">
<path d="M9.58974 93.1519C14.886 93.1519 19.1795 88.8937 19.1795 83.6409C19.1795 78.3881 14.886 74.1299 9.58974 74.1299C4.29348 74.1299 0 78.3881 0 83.6409C0 88.8937 4.29348 93.1519 9.58974 93.1519Z" fill="#DDCD4A"/>
</g>
<g filter="url(#filter49_f)">
<path d="M19.1796 114.132C24.4759 114.132 28.7693 109.874 28.7693 104.621C28.7693 99.3684 24.4759 95.1102 19.1796 95.1102C13.8833 95.1102 9.58984 99.3684 9.58984 104.621C9.58984 109.874 13.8833 114.132 19.1796 114.132Z" fill="#DDCD4A"/>
</g>
<g filter="url(#filter50_f)">
<path d="M38.0761 123.643C43.3723 123.643 47.6658 119.385 47.6658 114.132C47.6658 108.879 43.3723 104.621 38.0761 104.621C32.7798 104.621 28.4863 108.879 28.4863 114.132C28.4863 119.385 32.7798 123.643 38.0761 123.643Z" fill="#DDCD4A"/>
</g>
<g filter="url(#filter51_f)">
<path d="M59.7948 123.643C65.0911 123.643 69.3846 119.385 69.3846 114.132C69.3846 108.879 65.0911 104.621 59.7948 104.621C54.4986 104.621 50.2051 108.879 50.2051 114.132C50.2051 119.385 54.4986 123.643 59.7948 123.643Z" fill="#DDCD4A"/>
</g>
<g filter="url(#filter52_f)">
<path d="M78.6933 111.894C83.9895 111.894 88.283 107.636 88.283 102.383C88.283 97.1304 83.9895 92.8722 78.6933 92.8722C73.397 92.8722 69.1035 97.1304 69.1035 102.383C69.1035 107.636 73.397 111.894 78.6933 111.894Z" fill="#DDCD4A"/>
</g>
<g filter="url(#filter53_f)">
<path d="M86.5898 91.4736C91.886 91.4736 96.1795 87.2154 96.1795 81.9626C96.1795 76.7098 91.886 72.4516 86.5898 72.4516C81.2935 72.4516 77 76.7098 77 81.9626C77 87.2154 81.2935 91.4736 86.5898 91.4736Z" fill="#DDCD4A"/>
</g>
<g filter="url(#filter54_f)">
<path d="M85.1796 69.6542C90.4759 69.6542 94.7693 65.3959 94.7693 60.1432C94.7693 54.8904 90.4759 50.6321 85.1796 50.6321C79.8833 50.6321 75.5898 54.8904 75.5898 60.1432C75.5898 65.3959 79.8833 69.6542 85.1796 69.6542Z" fill="#DDCD4A"/>
</g>
<g filter="url(#filter55_f)">
<path d="M69.1015 52.0309C74.3977 52.0309 78.6912 47.7726 78.6912 42.5199C78.6912 37.2671 74.3977 33.0089 69.1015 33.0089C63.8052 33.0089 59.5117 37.2671 59.5117 42.5199C59.5117 47.7726 63.8052 52.0309 69.1015 52.0309Z" fill="#DDCD4A"/>
</g>
<g filter="url(#filter56_f)">
<path d="M47.6659 46.7159C52.9622 46.7159 57.2557 42.4576 57.2557 37.2049C57.2557 31.9521 52.9622 27.6938 47.6659 27.6938C42.3696 27.6938 38.0762 31.9521 38.0762 37.2049C38.0762 42.4576 42.3696 46.7159 47.6659 46.7159Z" fill="#DDCD4A"/>
</g>
<g filter="url(#filter57_f)">
<path d="M216.615 53.9891C221.911 53.9891 226.205 49.7308 226.205 44.478C226.205 39.2253 221.911 34.967 216.615 34.967C211.319 34.967 207.025 39.2253 207.025 44.478C207.025 49.7308 211.319 53.9891 216.615 53.9891Z" fill="#DDCD4A"/>
</g>
<g filter="url(#filter58_f)">
<path d="M203.64 72.7313C208.937 72.7313 213.23 68.4731 213.23 63.2203C213.23 57.9675 208.937 53.7093 203.64 53.7093C198.344 53.7093 194.051 57.9675 194.051 63.2203C194.051 68.4731 198.344 72.7313 203.64 72.7313Z" fill="#DDCD4A"/>
</g>
<g filter="url(#filter59_f)">
<path d="M200.82 95.1102C206.116 95.1102 210.41 90.852 210.41 85.5992C210.41 80.3464 206.116 76.0882 200.82 76.0882C195.524 76.0882 191.23 80.3464 191.23 85.5992C191.23 90.852 195.524 95.1102 200.82 95.1102Z" fill="#DDCD4A"/>
</g>
<g filter="url(#filter60_f)">
<path d="M210.41 115.811C215.706 115.811 220 111.552 220 106.3C220 101.047 215.706 96.7886 210.41 96.7886C205.114 96.7886 200.82 101.047 200.82 106.3C200.82 111.552 205.114 115.811 210.41 115.811Z" fill="#DDCD4A"/>
</g>
<g filter="url(#filter61_f)">
<path d="M229.307 125.601C234.603 125.601 238.896 121.343 238.896 116.09C238.896 110.838 234.603 106.579 229.307 106.579C224.01 106.579 219.717 110.838 219.717 116.09C219.717 121.343 224.01 125.601 229.307 125.601Z" fill="#DDCD4A"/>
</g>
<g filter="url(#filter62_f)">
<path d="M251.025 125.322C256.322 125.322 260.615 121.063 260.615 115.811C260.615 110.558 256.322 106.3 251.025 106.3C245.729 106.3 241.436 110.558 241.436 115.811C241.436 121.063 245.729 125.322 251.025 125.322Z" fill="#DDCD4A"/>
</g>
<g filter="url(#filter63_f)">
<path d="M269.924 113.852C275.22 113.852 279.513 109.594 279.513 104.341C279.513 99.0887 275.22 94.8304 269.924 94.8304C264.627 94.8304 260.334 99.0887 260.334 104.341C260.334 109.594 264.627 113.852 269.924 113.852Z" fill="#DDCD4A"/>
</g>
<g filter="url(#filter64_f)">
<path d="M277.82 93.4318C283.116 93.4318 287.41 89.1735 287.41 83.9207C287.41 78.668 283.116 74.4097 277.82 74.4097C272.524 74.4097 268.23 78.668 268.23 83.9207C268.23 89.1735 272.524 93.4318 277.82 93.4318Z" fill="#DDCD4A"/>
</g>
<g filter="url(#filter65_f)">
<path d="M276.41 71.6124C281.706 71.6124 286 67.3542 286 62.1014C286 56.8486 281.706 52.5904 276.41 52.5904C271.114 52.5904 266.82 56.8486 266.82 62.1014C266.82 67.3542 271.114 71.6124 276.41 71.6124Z" fill="#DDCD4A"/>
</g>
<g filter="url(#filter66_f)">
<path d="M260.615 53.9891C265.911 53.9891 270.205 49.7308 270.205 44.478C270.205 39.2253 265.911 34.967 260.615 34.967C255.319 34.967 251.025 39.2253 251.025 44.478C251.025 49.7308 255.319 53.9891 260.615 53.9891Z" fill="#DDCD4A"/>
</g>
<g filter="url(#filter67_f)">
<path d="M238.896 48.3943C244.193 48.3943 248.486 44.1361 248.486 38.8833C248.486 33.6305 244.193 29.3723 238.896 29.3723C233.6 29.3723 229.307 33.6305 229.307 38.8833C229.307 44.1361 233.6 48.3943 238.896 48.3943Z" fill="#DDCD4A"/>
</g>
</g>
<defs>
<filter id="filter0_f" x="105.283" y="33.6035" width="29.1795" height="29.022" filterUnits="userSpaceOnUse" color-interpolation-filters="sRGB">
<feFlood flood-opacity="0" result="BackgroundImageFix"/>
<feBlend mode="normal" in="SourceGraphic" in2="BackgroundImageFix" result="shape"/>
<feGaussianBlur stdDeviation="2.5" result="effect1_foregroundBlur"/>
</filter>
<filter id="filter1_f" x="124.744" y="26.0507" width="29.1794" height="29.022" filterUnits="userSpaceOnUse" color-interpolation-filters="sRGB">
<feFlood flood-opacity="0" result="BackgroundImageFix"/>
<feBlend mode="normal" in="SourceGraphic" in2="BackgroundImageFix" result="shape"/>
<feGaussianBlur stdDeviation="2.5" result="effect1_foregroundBlur"/>
</filter>
<filter id="filter2_f" x="147.025" y="28.0089" width="29.1795" height="29.022" filterUnits="userSpaceOnUse" color-interpolation-filters="sRGB">
<feFlood flood-opacity="0" result="BackgroundImageFix"/>
<feBlend mode="normal" in="SourceGraphic" in2="BackgroundImageFix" result="shape"/>
<feGaussianBlur stdDeviation="2.5" result="effect1_foregroundBlur"/>
</filter>
<filter id="filter3_f" x="300.18" y="19.6168" width="29.1795" height="29.022" filterUnits="userSpaceOnUse" color-interpolation-filters="sRGB">
<feFlood flood-opacity="0" result="BackgroundImageFix"/>
<feBlend mode="normal" in="SourceGraphic" in2="BackgroundImageFix" result="shape"/>
<feGaussianBlur stdDeviation="2.5" result="effect1_foregroundBlur"/>
</filter>
<filter id="filter4_f" x="300.18" y="40.3172" width="29.1795" height="29.022" filterUnits="userSpaceOnUse" color-interpolation-filters="sRGB">
<feFlood flood-opacity="0" result="BackgroundImageFix"/>
<feBlend mode="normal" in="SourceGraphic" in2="BackgroundImageFix" result="shape"/>
<feGaussianBlur stdDeviation="2.5" result="effect1_foregroundBlur"/>
</filter>
<filter id="filter5_f" x="300.18" y="61.0176" width="29.1795" height="29.022" filterUnits="userSpaceOnUse" color-interpolation-filters="sRGB">
<feFlood flood-opacity="0" result="BackgroundImageFix"/>
<feBlend mode="normal" in="SourceGraphic" in2="BackgroundImageFix" result="shape"/>
<feGaussianBlur stdDeviation="2.5" result="effect1_foregroundBlur"/>
</filter>
<filter id="filter6_f" x="323.59" y="61.577" width="29.1795" height="29.022" filterUnits="userSpaceOnUse" color-interpolation-filters="sRGB">
<feFlood flood-opacity="0" result="BackgroundImageFix"/>
<feBlend mode="normal" in="SourceGraphic" in2="BackgroundImageFix" result="shape"/>
<feGaussianBlur stdDeviation="2.5" result="effect1_foregroundBlur"/>
</filter>
<filter id="filter7_f" x="347" y="61.577" width="29.1795" height="29.022" filterUnits="userSpaceOnUse" color-interpolation-filters="sRGB">
<feFlood flood-opacity="0" result="BackgroundImageFix"/>
<feBlend mode="normal" in="SourceGraphic" in2="BackgroundImageFix" result="shape"/>
<feGaussianBlur stdDeviation="2.5" result="effect1_foregroundBlur"/>
</filter>
<filter id="filter8_f" x="300.18" y="81.9978" width="29.1795" height="29.022" filterUnits="userSpaceOnUse" color-interpolation-filters="sRGB">
<feFlood flood-opacity="0" result="BackgroundImageFix"/>
<feBlend mode="normal" in="SourceGraphic" in2="BackgroundImageFix" result="shape"/>
<feGaussianBlur stdDeviation="2.5" result="effect1_foregroundBlur"/>
</filter>
<filter id="filter9_f" x="300.18" y="102.419" width="29.1795" height="29.022" filterUnits="userSpaceOnUse" color-interpolation-filters="sRGB">
<feFlood flood-opacity="0" result="BackgroundImageFix"/>
<feBlend mode="normal" in="SourceGraphic" in2="BackgroundImageFix" result="shape"/>
<feGaussianBlur stdDeviation="2.5" result="effect1_foregroundBlur"/>
</filter>
<filter id="filter10_f" x="369.283" y="20.1761" width="29.1795" height="29.022" filterUnits="userSpaceOnUse" color-interpolation-filters="sRGB">
<feFlood flood-opacity="0" result="BackgroundImageFix"/>
<feBlend mode="normal" in="SourceGraphic" in2="BackgroundImageFix" result="shape"/>
<feGaussianBlur stdDeviation="2.5" result="effect1_foregroundBlur"/>
</filter>
<filter id="filter11_f" x="369.283" y="40.5969" width="29.1795" height="29.022" filterUnits="userSpaceOnUse" color-interpolation-filters="sRGB">
<feFlood flood-opacity="0" result="BackgroundImageFix"/>
<feBlend mode="normal" in="SourceGraphic" in2="BackgroundImageFix" result="shape"/>
<feGaussianBlur stdDeviation="2.5" result="effect1_foregroundBlur"/>
</filter>
<filter id="filter12_f" x="369.283" y="61.2974" width="29.1795" height="29.022" filterUnits="userSpaceOnUse" color-interpolation-filters="sRGB">
<feFlood flood-opacity="0" result="BackgroundImageFix"/>
<feBlend mode="normal" in="SourceGraphic" in2="BackgroundImageFix" result="shape"/>
<feGaussianBlur stdDeviation="2.5" result="effect1_foregroundBlur"/>
</filter>
<filter id="filter13_f" x="407.359" y="61.577" width="29.1795" height="29.022" filterUnits="userSpaceOnUse" color-interpolation-filters="sRGB">
<feFlood flood-opacity="0" result="BackgroundImageFix"/>
<feBlend mode="normal" in="SourceGraphic" in2="BackgroundImageFix" result="shape"/>
<feGaussianBlur stdDeviation="2.5" result="effect1_foregroundBlur"/>
</filter>
<filter id="filter14_f" x="428.23" y="61.577" width="29.1794" height="29.022" filterUnits="userSpaceOnUse" color-interpolation-filters="sRGB">
<feFlood flood-opacity="0" result="BackgroundImageFix"/>
<feBlend mode="normal" in="SourceGraphic" in2="BackgroundImageFix" result="shape"/>
<feGaussianBlur stdDeviation="2.5" result="effect1_foregroundBlur"/>
</filter>
<filter id="filter15_f" x="448.82" y="61.577" width="29.1795" height="29.022" filterUnits="userSpaceOnUse" color-interpolation-filters="sRGB">
<feFlood flood-opacity="0" result="BackgroundImageFix"/>
<feBlend mode="normal" in="SourceGraphic" in2="BackgroundImageFix" result="shape"/>
<feGaussianBlur stdDeviation="2.5" result="effect1_foregroundBlur"/>
</filter>
<filter id="filter16_f" x="469.691" y="61.577" width="29.1795" height="29.022" filterUnits="userSpaceOnUse" color-interpolation-filters="sRGB">
<feFlood flood-opacity="0" result="BackgroundImageFix"/>
<feBlend mode="normal" in="SourceGraphic" in2="BackgroundImageFix" result="shape"/>
<feGaussianBlur stdDeviation="2.5" result="effect1_foregroundBlur"/>
</filter>
<filter id="filter17_f" x="470.82" y="40.3172" width="29.1794" height="29.022" filterUnits="userSpaceOnUse" color-interpolation-filters="sRGB">
<feFlood flood-opacity="0" result="BackgroundImageFix"/>
<feBlend mode="normal" in="SourceGraphic" in2="BackgroundImageFix" result="shape"/>
<feGaussianBlur stdDeviation="2.5" result="effect1_foregroundBlur"/>
</filter>
<filter id="filter18_f" x="453.615" y="26.0507" width="29.1795" height="29.022" filterUnits="userSpaceOnUse" color-interpolation-filters="sRGB">
<feFlood flood-opacity="0" result="BackgroundImageFix"/>
<feBlend mode="normal" in="SourceGraphic" in2="BackgroundImageFix" result="shape"/>
<feGaussianBlur stdDeviation="2.5" result="effect1_foregroundBlur"/>
</filter>
<filter id="filter19_f" x="429.643" y="26.3304" width="29.1794" height="29.022" filterUnits="userSpaceOnUse" color-interpolation-filters="sRGB">
<feFlood flood-opacity="0" result="BackgroundImageFix"/>
<feBlend mode="normal" in="SourceGraphic" in2="BackgroundImageFix" result="shape"/>
<feGaussianBlur stdDeviation="2.5" result="effect1_foregroundBlur"/>
</filter>
<filter id="filter20_f" x="409.051" y="39.1982" width="29.1795" height="29.022" filterUnits="userSpaceOnUse" color-interpolation-filters="sRGB">
<feFlood flood-opacity="0" result="BackgroundImageFix"/>
<feBlend mode="normal" in="SourceGraphic" in2="BackgroundImageFix" result="shape"/>
<feGaussianBlur stdDeviation="2.5" result="effect1_foregroundBlur"/>
</filter>
<filter id="filter21_f" x="407.359" y="83.9559" width="29.1795" height="29.022" filterUnits="userSpaceOnUse" color-interpolation-filters="sRGB">
<feFlood flood-opacity="0" result="BackgroundImageFix"/>
<feBlend mode="normal" in="SourceGraphic" in2="BackgroundImageFix" result="shape"/>
<feGaussianBlur stdDeviation="2.5" result="effect1_foregroundBlur"/>
</filter>
<filter id="filter22_f" x="423.719" y="96.8239" width="29.1794" height="29.022" filterUnits="userSpaceOnUse" color-interpolation-filters="sRGB">
<feFlood flood-opacity="0" result="BackgroundImageFix"/>
<feBlend mode="normal" in="SourceGraphic" in2="BackgroundImageFix" result="shape"/>
<feGaussianBlur stdDeviation="2.5" result="effect1_foregroundBlur"/>
</filter>
<filter id="filter23_f" x="446.002" y="102.419" width="29.1795" height="29.022" filterUnits="userSpaceOnUse" color-interpolation-filters="sRGB">
<feFlood flood-opacity="0" result="BackgroundImageFix"/>
<feBlend mode="normal" in="SourceGraphic" in2="BackgroundImageFix" result="shape"/>
<feGaussianBlur stdDeviation="2.5" result="effect1_foregroundBlur"/>
</filter>
<filter id="filter24_f" x="423.719" y="-5" width="29.1794" height="29.022" filterUnits="userSpaceOnUse" color-interpolation-filters="sRGB">
<feFlood flood-opacity="0" result="BackgroundImageFix"/>
<feBlend mode="normal" in="SourceGraphic" in2="BackgroundImageFix" result="shape"/>
<feGaussianBlur stdDeviation="2.5" result="effect1_foregroundBlur"/>
</filter>
<filter id="filter25_f" x="458.41" y="-5" width="29.1795" height="29.022" filterUnits="userSpaceOnUse" color-interpolation-filters="sRGB">
<feFlood flood-opacity="0" result="BackgroundImageFix"/>
<feBlend mode="normal" in="SourceGraphic" in2="BackgroundImageFix" result="shape"/>
<feGaussianBlur stdDeviation="2.5" result="effect1_foregroundBlur"/>
</filter>
<filter id="filter26_f" x="466.59" y="95.4252" width="29.1796" height="29.022" filterUnits="userSpaceOnUse" color-interpolation-filters="sRGB">
<feFlood flood-opacity="0" result="BackgroundImageFix"/>
<feBlend mode="normal" in="SourceGraphic" in2="BackgroundImageFix" result="shape"/>
<feGaussianBlur stdDeviation="2.5" result="effect1_foregroundBlur"/>
</filter>
<filter id="filter27_f" x="369.283" y="82.2775" width="29.1795" height="29.022" filterUnits="userSpaceOnUse" color-interpolation-filters="sRGB">
<feFlood flood-opacity="0" result="BackgroundImageFix"/>
<feBlend mode="normal" in="SourceGraphic" in2="BackgroundImageFix" result="shape"/>
<feGaussianBlur stdDeviation="2.5" result="effect1_foregroundBlur"/>
</filter>
<filter id="filter28_f" x="369.283" y="102.978" width="29.1795" height="29.022" filterUnits="userSpaceOnUse" color-interpolation-filters="sRGB">
<feFlood flood-opacity="0" result="BackgroundImageFix"/>
<feBlend mode="normal" in="SourceGraphic" in2="BackgroundImageFix" result="shape"/>
<feGaussianBlur stdDeviation="2.5" result="effect1_foregroundBlur"/>
</filter>
<filter id="filter29_f" x="507.77" y="19.6168" width="29.1795" height="29.022" filterUnits="userSpaceOnUse" color-interpolation-filters="sRGB">
<feFlood flood-opacity="0" result="BackgroundImageFix"/>
<feBlend mode="normal" in="SourceGraphic" in2="BackgroundImageFix" result="shape"/>
<feGaussianBlur stdDeviation="2.5" result="effect1_foregroundBlur"/>
</filter>
<filter id="filter30_f" x="507.77" y="40.3172" width="29.1795" height="29.022" filterUnits="userSpaceOnUse" color-interpolation-filters="sRGB">
<feFlood flood-opacity="0" result="BackgroundImageFix"/>
<feBlend mode="normal" in="SourceGraphic" in2="BackgroundImageFix" result="shape"/>
<feGaussianBlur stdDeviation="2.5" result="effect1_foregroundBlur"/>
</filter>
<filter id="filter31_f" x="507.77" y="60.7379" width="29.1795" height="29.022" filterUnits="userSpaceOnUse" color-interpolation-filters="sRGB">
<feFlood flood-opacity="0" result="BackgroundImageFix"/>
<feBlend mode="normal" in="SourceGraphic" in2="BackgroundImageFix" result="shape"/>
<feGaussianBlur stdDeviation="2.5" result="effect1_foregroundBlur"/>
</filter>
<filter id="filter32_f" x="507.77" y="81.7181" width="29.1795" height="29.022" filterUnits="userSpaceOnUse" color-interpolation-filters="sRGB">
<feFlood flood-opacity="0" result="BackgroundImageFix"/>
<feBlend mode="normal" in="SourceGraphic" in2="BackgroundImageFix" result="shape"/>
<feGaussianBlur stdDeviation="2.5" result="effect1_foregroundBlur"/>
</filter>
<filter id="filter33_f" x="507.77" y="102.419" width="29.1795" height="29.022" filterUnits="userSpaceOnUse" color-interpolation-filters="sRGB">
<feFlood flood-opacity="0" result="BackgroundImageFix"/>
<feBlend mode="normal" in="SourceGraphic" in2="BackgroundImageFix" result="shape"/>
<feGaussianBlur stdDeviation="2.5" result="effect1_foregroundBlur"/>
</filter>
<filter id="filter34_f" x="528.922" y="63.2555" width="29.1795" height="29.022" filterUnits="userSpaceOnUse" color-interpolation-filters="sRGB">
<feFlood flood-opacity="0" result="BackgroundImageFix"/>
<feBlend mode="normal" in="SourceGraphic" in2="BackgroundImageFix" result="shape"/>
<feGaussianBlur stdDeviation="2.5" result="effect1_foregroundBlur"/>
</filter>
<filter id="filter35_f" x="543.309" y="46.4714" width="29.1795" height="29.022" filterUnits="userSpaceOnUse" color-interpolation-filters="sRGB">
<feFlood flood-opacity="0" result="BackgroundImageFix"/>
<feBlend mode="normal" in="SourceGraphic" in2="BackgroundImageFix" result="shape"/>
<feGaussianBlur stdDeviation="2.5" result="effect1_foregroundBlur"/>
</filter>
<filter id="filter36_f" x="545" y="79.2004" width="29.1796" height="29.022" filterUnits="userSpaceOnUse" color-interpolation-filters="sRGB">
<feFlood flood-opacity="0" result="BackgroundImageFix"/>
<feBlend mode="normal" in="SourceGraphic" in2="BackgroundImageFix" result="shape"/>
<feGaussianBlur stdDeviation="2.5" result="effect1_foregroundBlur"/>
</filter>
<filter id="filter37_f" x="559.104" y="30.2466" width="29.1796" height="29.022" filterUnits="userSpaceOnUse" color-interpolation-filters="sRGB">
<feFlood flood-opacity="0" result="BackgroundImageFix"/>
<feBlend mode="normal" in="SourceGraphic" in2="BackgroundImageFix" result="shape"/>
<feGaussianBlur stdDeviation="2.5" result="effect1_foregroundBlur"/>
</filter>
<filter id="filter38_f" x="559.104" y="97.3832" width="29.1796" height="29.022" filterUnits="userSpaceOnUse" color-interpolation-filters="sRGB">
<feFlood flood-opacity="0" result="BackgroundImageFix"/>
<feBlend mode="normal" in="SourceGraphic" in2="BackgroundImageFix" result="shape"/>
<feGaussianBlur stdDeviation="2.5" result="effect1_foregroundBlur"/>
</filter>
<filter id="filter39_f" x="153.23" y="47.0308" width="29.1795" height="29.022" filterUnits="userSpaceOnUse" color-interpolation-filters="sRGB">
<feFlood flood-opacity="0" result="BackgroundImageFix"/>
<feBlend mode="normal" in="SourceGraphic" in2="BackgroundImageFix" result="shape"/>
<feGaussianBlur stdDeviation="2.5" result="effect1_foregroundBlur"/>
</filter>
<filter id="filter40_f" x="137.436" y="62.9757" width="29.1795" height="29.022" filterUnits="userSpaceOnUse" color-interpolation-filters="sRGB">
<feFlood flood-opacity="0" result="BackgroundImageFix"/>
<feBlend mode="normal" in="SourceGraphic" in2="BackgroundImageFix" result="shape"/>
<feGaussianBlur stdDeviation="2.5" result="effect1_foregroundBlur"/>
</filter>
<filter id="filter41_f" x="114.871" y="67.4515" width="29.1795" height="29.022" filterUnits="userSpaceOnUse" color-interpolation-filters="sRGB">
<feFlood flood-opacity="0" result="BackgroundImageFix"/>
<feBlend mode="normal" in="SourceGraphic" in2="BackgroundImageFix" result="shape"/>
<feGaussianBlur stdDeviation="2.5" result="effect1_foregroundBlur"/>
</filter>
<filter id="filter42_f" x="100.205" y="84.5154" width="29.1795" height="29.022" filterUnits="userSpaceOnUse" color-interpolation-filters="sRGB">
<feFlood flood-opacity="0" result="BackgroundImageFix"/>
<feBlend mode="normal" in="SourceGraphic" in2="BackgroundImageFix" result="shape"/>
<feGaussianBlur stdDeviation="2.5" result="effect1_foregroundBlur"/>
</filter>
<filter id="filter43_f" x="115.154" y="99.3414" width="29.1795" height="29.022" filterUnits="userSpaceOnUse" color-interpolation-filters="sRGB">
<feFlood flood-opacity="0" result="BackgroundImageFix"/>
<feBlend mode="normal" in="SourceGraphic" in2="BackgroundImageFix" result="shape"/>
<feGaussianBlur stdDeviation="2.5" result="effect1_foregroundBlur"/>
</filter>
<filter id="filter44_f" x="137.436" y="102.139" width="29.1795" height="29.022" filterUnits="userSpaceOnUse" color-interpolation-filters="sRGB">
<feFlood flood-opacity="0" result="BackgroundImageFix"/>
<feBlend mode="normal" in="SourceGraphic" in2="BackgroundImageFix" result="shape"/>
<feGaussianBlur stdDeviation="2.5" result="effect1_foregroundBlur"/>
</filter>
<filter id="filter45_f" x="156.615" y="92.6277" width="29.1794" height="29.022" filterUnits="userSpaceOnUse" color-interpolation-filters="sRGB">
<feFlood flood-opacity="0" result="BackgroundImageFix"/>
<feBlend mode="normal" in="SourceGraphic" in2="BackgroundImageFix" result="shape"/>
<feGaussianBlur stdDeviation="2.5" result="effect1_foregroundBlur"/>
</filter>
<filter id="filter46_f" x="10.7949" y="28.0089" width="29.1795" height="29.022" filterUnits="userSpaceOnUse" color-interpolation-filters="sRGB">
<feFlood flood-opacity="0" result="BackgroundImageFix"/>
<feBlend mode="normal" in="SourceGraphic" in2="BackgroundImageFix" result="shape"/>
<feGaussianBlur stdDeviation="2.5" result="effect1_foregroundBlur"/>
</filter>
<filter id="filter47_f" x="-2.17969" y="47.0308" width="29.1795" height="29.022" filterUnits="userSpaceOnUse" color-interpolation-filters="sRGB">
<feFlood flood-opacity="0" result="BackgroundImageFix"/>
<feBlend mode="normal" in="SourceGraphic" in2="BackgroundImageFix" result="shape"/>
<feGaussianBlur stdDeviation="2.5" result="effect1_foregroundBlur"/>
</filter>
<filter id="filter48_f" x="-5" y="69.1299" width="29.1795" height="29.022" filterUnits="userSpaceOnUse" color-interpolation-filters="sRGB">
<feFlood flood-opacity="0" result="BackgroundImageFix"/>
<feBlend mode="normal" in="SourceGraphic" in2="BackgroundImageFix" result="shape"/>
<feGaussianBlur stdDeviation="2.5" result="effect1_foregroundBlur"/>
</filter>
<filter id="filter49_f" x="4.58984" y="90.1102" width="29.1795" height="29.022" filterUnits="userSpaceOnUse" color-interpolation-filters="sRGB">
<feFlood flood-opacity="0" result="BackgroundImageFix"/>
<feBlend mode="normal" in="SourceGraphic" in2="BackgroundImageFix" result="shape"/>
<feGaussianBlur stdDeviation="2.5" result="effect1_foregroundBlur"/>
</filter>
<filter id="filter50_f" x="23.4863" y="99.6211" width="29.1795" height="29.022" filterUnits="userSpaceOnUse" color-interpolation-filters="sRGB">
<feFlood flood-opacity="0" result="BackgroundImageFix"/>
<feBlend mode="normal" in="SourceGraphic" in2="BackgroundImageFix" result="shape"/>
<feGaussianBlur stdDeviation="2.5" result="effect1_foregroundBlur"/>
</filter>
<filter id="filter51_f" x="45.2051" y="99.6211" width="29.1795" height="29.022" filterUnits="userSpaceOnUse" color-interpolation-filters="sRGB">
<feFlood flood-opacity="0" result="BackgroundImageFix"/>
<feBlend mode="normal" in="SourceGraphic" in2="BackgroundImageFix" result="shape"/>
<feGaussianBlur stdDeviation="2.5" result="effect1_foregroundBlur"/>
</filter>
<filter id="filter52_f" x="64.1035" y="87.8722" width="29.1795" height="29.022" filterUnits="userSpaceOnUse" color-interpolation-filters="sRGB">
<feFlood flood-opacity="0" result="BackgroundImageFix"/>
<feBlend mode="normal" in="SourceGraphic" in2="BackgroundImageFix" result="shape"/>
<feGaussianBlur stdDeviation="2.5" result="effect1_foregroundBlur"/>
</filter>
<filter id="filter53_f" x="72" y="67.4516" width="29.1795" height="29.022" filterUnits="userSpaceOnUse" color-interpolation-filters="sRGB">
<feFlood flood-opacity="0" result="BackgroundImageFix"/>
<feBlend mode="normal" in="SourceGraphic" in2="BackgroundImageFix" result="shape"/>
<feGaussianBlur stdDeviation="2.5" result="effect1_foregroundBlur"/>
</filter>
<filter id="filter54_f" x="70.5898" y="45.6321" width="29.1795" height="29.022" filterUnits="userSpaceOnUse" color-interpolation-filters="sRGB">
<feFlood flood-opacity="0" result="BackgroundImageFix"/>
<feBlend mode="normal" in="SourceGraphic" in2="BackgroundImageFix" result="shape"/>
<feGaussianBlur stdDeviation="2.5" result="effect1_foregroundBlur"/>
</filter>
<filter id="filter55_f" x="54.5117" y="28.0089" width="29.1795" height="29.022" filterUnits="userSpaceOnUse" color-interpolation-filters="sRGB">
<feFlood flood-opacity="0" result="BackgroundImageFix"/>
<feBlend mode="normal" in="SourceGraphic" in2="BackgroundImageFix" result="shape"/>
<feGaussianBlur stdDeviation="2.5" result="effect1_foregroundBlur"/>
</filter>
<filter id="filter56_f" x="33.0762" y="22.6938" width="29.1795" height="29.022" filterUnits="userSpaceOnUse" color-interpolation-filters="sRGB">
<feFlood flood-opacity="0" result="BackgroundImageFix"/>
<feBlend mode="normal" in="SourceGraphic" in2="BackgroundImageFix" result="shape"/>
<feGaussianBlur stdDeviation="2.5" result="effect1_foregroundBlur"/>
</filter>
<filter id="filter57_f" x="202.025" y="29.967" width="29.1794" height="29.022" filterUnits="userSpaceOnUse" color-interpolation-filters="sRGB">
<feFlood flood-opacity="0" result="BackgroundImageFix"/>
<feBlend mode="normal" in="SourceGraphic" in2="BackgroundImageFix" result="shape"/>
<feGaussianBlur stdDeviation="2.5" result="effect1_foregroundBlur"/>
</filter>
<filter id="filter58_f" x="189.051" y="48.7093" width="29.1794" height="29.022" filterUnits="userSpaceOnUse" color-interpolation-filters="sRGB">
<feFlood flood-opacity="0" result="BackgroundImageFix"/>
<feBlend mode="normal" in="SourceGraphic" in2="BackgroundImageFix" result="shape"/>
<feGaussianBlur stdDeviation="2.5" result="effect1_foregroundBlur"/>
</filter>
<filter id="filter59_f" x="186.23" y="71.0882" width="29.1795" height="29.022" filterUnits="userSpaceOnUse" color-interpolation-filters="sRGB">
<feFlood flood-opacity="0" result="BackgroundImageFix"/>
<feBlend mode="normal" in="SourceGraphic" in2="BackgroundImageFix" result="shape"/>
<feGaussianBlur stdDeviation="2.5" result="effect1_foregroundBlur"/>
</filter>
<filter id="filter60_f" x="195.82" y="91.7886" width="29.1795" height="29.022" filterUnits="userSpaceOnUse" color-interpolation-filters="sRGB">
<feFlood flood-opacity="0" result="BackgroundImageFix"/>
<feBlend mode="normal" in="SourceGraphic" in2="BackgroundImageFix" result="shape"/>
<feGaussianBlur stdDeviation="2.5" result="effect1_foregroundBlur"/>
</filter>
<filter id="filter61_f" x="214.717" y="101.579" width="29.1795" height="29.0221" filterUnits="userSpaceOnUse" color-interpolation-filters="sRGB">
<feFlood flood-opacity="0" result="BackgroundImageFix"/>
<feBlend mode="normal" in="SourceGraphic" in2="BackgroundImageFix" result="shape"/>
<feGaussianBlur stdDeviation="2.5" result="effect1_foregroundBlur"/>
</filter>
<filter id="filter62_f" x="236.436" y="101.3" width="29.1795" height="29.022" filterUnits="userSpaceOnUse" color-interpolation-filters="sRGB">
<feFlood flood-opacity="0" result="BackgroundImageFix"/>
<feBlend mode="normal" in="SourceGraphic" in2="BackgroundImageFix" result="shape"/>
<feGaussianBlur stdDeviation="2.5" result="effect1_foregroundBlur"/>
</filter>
<filter id="filter63_f" x="255.334" y="89.8304" width="29.1795" height="29.022" filterUnits="userSpaceOnUse" color-interpolation-filters="sRGB">
<feFlood flood-opacity="0" result="BackgroundImageFix"/>
<feBlend mode="normal" in="SourceGraphic" in2="BackgroundImageFix" result="shape"/>
<feGaussianBlur stdDeviation="2.5" result="effect1_foregroundBlur"/>
</filter>
<filter id="filter64_f" x="263.23" y="69.4097" width="29.1795" height="29.022" filterUnits="userSpaceOnUse" color-interpolation-filters="sRGB">
<feFlood flood-opacity="0" result="BackgroundImageFix"/>
<feBlend mode="normal" in="SourceGraphic" in2="BackgroundImageFix" result="shape"/>
<feGaussianBlur stdDeviation="2.5" result="effect1_foregroundBlur"/>
</filter>
<filter id="filter65_f" x="261.82" y="47.5904" width="29.1795" height="29.022" filterUnits="userSpaceOnUse" color-interpolation-filters="sRGB">
<feFlood flood-opacity="0" result="BackgroundImageFix"/>
<feBlend mode="normal" in="SourceGraphic" in2="BackgroundImageFix" result="shape"/>
<feGaussianBlur stdDeviation="2.5" result="effect1_foregroundBlur"/>
</filter>
<filter id="filter66_f" x="246.025" y="29.967" width="29.1795" height="29.022" filterUnits="userSpaceOnUse" color-interpolation-filters="sRGB">
<feFlood flood-opacity="0" result="BackgroundImageFix"/>
<feBlend mode="normal" in="SourceGraphic" in2="BackgroundImageFix" result="shape"/>
<feGaussianBlur stdDeviation="2.5" result="effect1_foregroundBlur"/>
</filter>
<filter id="filter67_f" x="224.307" y="24.3723" width="29.1795" height="29.022" filterUnits="userSpaceOnUse" color-interpolation-filters="sRGB">
<feFlood flood-opacity="0" result="BackgroundImageFix"/>
<feBlend mode="normal" in="SourceGraphic" in2="BackgroundImageFix" result="shape"/>
<feGaussianBlur stdDeviation="2.5" result="effect1_foregroundBlur"/>
</filter>
<clipPath id="clip0">
<rect width="583" height="127" fill="white"/>
</clipPath>
</defs>
</svg>
