<svg xmlns="http://www.w3.org/2000/svg" xmlns:xlink="http://www.w3.org/1999/xlink" viewBox="0 0 1367.1 3074.31"><defs><style>.cls-1{fill:url(#Безымянный_градиент_6);}.cls-2{fill:#060d20;}.cls-3,.cls-4,.cls-5,.cls-6,.cls-7,.cls-8,.cls-9{fill:none;stroke-miterlimit:10;}.cls-3{stroke:#666;}.cls-4,.cls-5,.cls-6,.cls-7,.cls-8,.cls-9{stroke:#fff;}.cls-5{stroke-width:0.57px;}.cls-6{stroke-width:0.36px;}.cls-7{stroke-width:0.85px;}.cls-8{stroke-width:0.48px;}.cls-9{stroke-width:0.3px;}</style><linearGradient id="Безымянный_градиент_6" x1="684.1" y1="0.02" x2="684.1" y2="3072.02" gradientUnits="userSpaceOnUse"><stop offset="0" stop-color="#f39669"/><stop offset="0.03" stop-color="#e99a59"/><stop offset="0.06" stop-color="#e59b53"/><stop offset="0.09" stop-color="#d59254"/><stop offset="0.22" stop-color="#a37458"/><stop offset="0.34" stop-color="#785b5b"/><stop offset="0.47" stop-color="#55465e"/><stop offset="0.6" stop-color="#3a3660"/><stop offset="0.73" stop-color="#262b62"/><stop offset="0.86" stop-color="#1b2463"/><stop offset="1" stop-color="#172263"/></linearGradient></defs><title>scenery</title><g id="Слой_2" data-name="Слой 2"><rect class="cls-1" x="1.1" y="0.02" width="1366" height="3072"/></g><g id="Слой_1" data-name="Слой 1"><path class="cls-2" d="M202.84,0s-8.32,403,0,573.4,48.27,698.23,39.95,823.67-5,830.77-11.65,868.64-2.73,741.57,12.78,806.29H0V0Z" transform="translate(1.1 0.02)"/><path class="cls-2" d="M1143,3072s28.49-403,20.17-573.4-17.71-687.47-9.39-812.91,10.5-861.15,17.16-899S1201.58,64.72,1186.07,0H1366V3072Z" transform="translate(1.1 0.02)"/></g><g id="Слой_5" data-name="Слой 5"><path class="cls-3" d="M33.81,2S28.31,901.62-.61,1090.42" transform="translate(1.1 0.02)"/><path class="cls-3" d="M60.37,2S.11,2959.86,52.94,3072" transform="translate(1.1 0.02)"/><path class="cls-3" d="M126,0s23.66,506.09,86.23,716.87" transform="translate(1.1 0.02)"/><path class="cls-3" d="M94.87,0s32.36,839-9.08,918" transform="translate(1.1 0.02)"/><path class="cls-3" d="M169.11,475.21s-1.94,1313.27,66,1556.32" transform="translate(1.1 0.02)"/><path class="cls-3" d="M133.17,3072s-10-1337.63-95-1545.68" transform="translate(1.1 0.02)"/><path class="cls-3" d="M98.36,853s53.12,1183.31,12.91,1314.42" transform="translate(1.1 0.02)"/><path class="cls-3" d="M34.27,2167.42s57.89,774.22,106.21,769.89" transform="translate(1.1 0.02)"/><path class="cls-3" d="M125.56,2510.07s22.49-353.73,86.53-621.44" transform="translate(1.1 0.02)"/><line class="cls-3" x1="164.84" y1="2150.75" x2="199.27" y2="3072.02"/><path class="cls-3" d="M1335.17,0s1.06,965.44,30,1154.23" transform="translate(1.1 0.02)"/><path class="cls-3" d="M1304.17,0s56.32,2961.93,3.49,3074.07" transform="translate(1.1 0.02)"/><path class="cls-3" d="M1232.53,0s21.71,631.13-40.86,841.91" transform="translate(1.1 0.02)"/><path class="cls-3" d="M1257.64,0s21.15,941.67,62.59,1020.72" transform="translate(1.1 0.02)"/><path class="cls-3" d="M1184.65,468.89s36.51,1383.41-31.42,1626.46" transform="translate(1.1 0.02)"/><path class="cls-3" d="M1227.44,3074.07s13.89-1275.88,98.9-1483.94" transform="translate(1.1 0.02)"/><path class="cls-3" d="M1287.33,748.63s-74.27,1351.49-34.06,1482.6" transform="translate(1.1 0.02)"/><path class="cls-3" d="M1330.27,2231.23s-57.89,774.23-106.21,769.89" transform="translate(1.1 0.02)"/><path class="cls-3" d="M1239,2573.89s-.19-358-64.23-625.73" transform="translate(1.1 0.02)"/><line class="cls-3" x1="1207.34" y1="2117.55" x2="1163.54" y2="3074.1"/></g><g id="Слой_4" data-name="Слой 4"><polygon class="cls-2" points="181.63 415.5 234.6 378.71 245.02 426.76 181.63 485.31 181.63 415.5"/><polygon class="cls-2" points="1173.96 956.41 1120.99 919.61 1110.57 967.67 1173.96 1026.21 1173.96 956.41"/><polygon class="cls-2" points="141.58 1780.12 314.46 1743.33 348.47 1791.38 141.58 1849.92 141.58 1780.12"/><polygon class="cls-2" points="1280.24 2653.28 1107.37 2616.49 1073.36 2664.54 1280.24 2723.09 1280.24 2653.28"/></g><g id="Слой_6" data-name="Слой 6"><ellipse class="cls-4" cx="112.54" cy="308.31" rx="29.16" ry="48.64"/><ellipse class="cls-5" cx="112.54" cy="308.31" rx="16.63" ry="27.73"/><ellipse class="cls-6" cx="111.29" cy="308.4" rx="10.48" ry="17.48"/><ellipse class="cls-7" cx="64.15" cy="936.5" rx="26.56" ry="38.18"/><ellipse class="cls-8" cx="64.15" cy="936.5" rx="15.14" ry="21.77"/><ellipse class="cls-9" cx="63" cy="936.57" rx="9.54" ry="13.72"/><ellipse class="cls-7" cx="175.3" cy="1446.89" rx="26.56" ry="38.18"/><ellipse class="cls-8" cx="175.3" cy="1446.89" rx="15.14" ry="21.77"/><ellipse class="cls-9" cx="174.16" cy="1446.97" rx="9.54" ry="13.72"/><ellipse class="cls-7" cx="71.47" cy="2051.86" rx="26.56" ry="38.18"/><ellipse class="cls-8" cx="71.47" cy="2051.86" rx="15.14" ry="21.77"/><ellipse class="cls-9" cx="70.33" cy="2051.93" rx="9.54" ry="13.72"/><ellipse class="cls-7" cx="1222.21" cy="1195.43" rx="26.56" ry="38.18"/><ellipse class="cls-8" cx="1222.21" cy="1195.43" rx="15.14" ry="21.77"/><ellipse class="cls-9" cx="1221.07" cy="1195.5" rx="9.54" ry="13.72"/><ellipse class="cls-7" cx="1247.21" cy="2073.63" rx="26.56" ry="38.18"/><ellipse class="cls-8" cx="1247.21" cy="2073.63" rx="15.14" ry="21.77"/><ellipse class="cls-9" cx="1246.06" cy="2073.7" rx="9.54" ry="13.72"/><ellipse class="cls-7" cx="1232.06" cy="2777.92" rx="26.56" ry="38.18"/><ellipse class="cls-8" cx="1232.06" cy="2777.92" rx="15.14" ry="21.77"/><ellipse class="cls-9" cx="1230.92" cy="2778" rx="9.54" ry="13.72"/><ellipse class="cls-7" cx="125.13" cy="2837.88" rx="26.56" ry="38.18"/><ellipse class="cls-8" cx="125.13" cy="2837.88" rx="15.14" ry="21.77"/><ellipse class="cls-9" cx="123.98" cy="2837.95" rx="9.54" ry="13.72"/><ellipse class="cls-7" cx="1268.91" cy="325.88" rx="26.56" ry="38.18"/><ellipse class="cls-8" cx="1268.91" cy="325.88" rx="15.14" ry="21.77"/><ellipse class="cls-9" cx="1267.77" cy="325.95" rx="9.54" ry="13.72"/><ellipse class="cls-4" cx="1295.48" cy="2469.29" rx="29.16" ry="48.64"/><ellipse class="cls-5" cx="1295.48" cy="2469.29" rx="16.63" ry="27.73"/><ellipse class="cls-6" cx="1294.22" cy="2469.39" rx="10.48" ry="17.48"/><ellipse class="cls-4" cx="1295.48" cy="1538.94" rx="29.16" ry="48.64"/><ellipse class="cls-5" cx="1295.48" cy="1538.94" rx="16.63" ry="27.73"/><ellipse class="cls-6" cx="1294.22" cy="1539.04" rx="10.48" ry="17.48"/><ellipse class="cls-4" cx="148.74" cy="2312.53" rx="29.16" ry="48.64"/><ellipse class="cls-5" cx="148.74" cy="2312.53" rx="16.63" ry="27.73"/><ellipse class="cls-6" cx="147.48" cy="2312.62" rx="10.48" ry="17.48"/></g></svg>