<svg id="Слой_3" data-name="Слой 3" xmlns="http://www.w3.org/2000/svg" viewBox="0 0 151.71 3072"><defs><style>.cls-1{fill:#060d20;}.cls-2,.cls-3,.cls-4,.cls-5,.cls-6,.cls-7{fill:none;stroke:#fff;stroke-miterlimit:10;}.cls-2{stroke-width:0.85px;}.cls-3{stroke-width:0.48px;}.cls-4{stroke-width:0.3px;}.cls-6{stroke-width:0.57px;}.cls-7{stroke-width:0.36px;}</style></defs><title>tree</title><rect class="cls-1" width="151.71" height="3072"/><ellipse class="cls-2" cx="103.72" cy="620.31" rx="26.56" ry="38.18"/><ellipse class="cls-3" cx="103.72" cy="620.31" rx="15.14" ry="21.77"/><ellipse class="cls-4" cx="104.87" cy="620.38" rx="9.54" ry="13.72"/><ellipse class="cls-2" cx="97.61" cy="1362.57" rx="26.56" ry="38.18"/><ellipse class="cls-3" cx="97.61" cy="1362.57" rx="15.14" ry="21.77"/><ellipse class="cls-4" cx="98.75" cy="1362.64" rx="9.54" ry="13.72"/><ellipse class="cls-2" cx="77.16" cy="248.82" rx="26.56" ry="38.18"/><ellipse class="cls-3" cx="77.16" cy="248.82" rx="15.14" ry="21.77"/><ellipse class="cls-4" cx="78.3" cy="248.89" rx="9.54" ry="13.72"/><ellipse class="cls-5" cx="50.6" cy="1716.34" rx="29.16" ry="48.64"/><ellipse class="cls-6" cx="50.6" cy="1716.34" rx="16.63" ry="27.73"/><ellipse class="cls-7" cx="51.85" cy="1716.43" rx="10.48" ry="17.48"/><ellipse class="cls-5" cx="59.27" cy="1002.26" rx="29.16" ry="48.64"/><ellipse class="cls-6" cx="59.27" cy="1002.26" rx="16.63" ry="27.73"/><ellipse class="cls-7" cx="60.53" cy="1002.35" rx="10.48" ry="17.48"/><ellipse class="cls-2" cx="98.87" cy="2430.78" rx="26.56" ry="38.18"/><ellipse class="cls-3" cx="98.87" cy="2430.78" rx="15.14" ry="21.77"/><ellipse class="cls-4" cx="100.02" cy="2430.85" rx="9.54" ry="13.72"/><ellipse class="cls-2" cx="72.31" cy="2059.29" rx="26.56" ry="38.18"/><ellipse class="cls-3" cx="72.31" cy="2059.29" rx="15.14" ry="21.77"/><ellipse class="cls-4" cx="73.46" cy="2059.36" rx="9.54" ry="13.72"/><ellipse class="cls-5" cx="54.43" cy="2812.73" rx="29.16" ry="48.64"/><ellipse class="cls-6" cx="54.43" cy="2812.73" rx="16.63" ry="27.73"/><ellipse class="cls-7" cx="55.68" cy="2812.82" rx="10.48" ry="17.48"/></svg>