<svg id="Слой_1" data-name="Слой 1" xmlns="http://www.w3.org/2000/svg" viewBox="0 0 151.71 3072"><defs><style>.cls-1{fill:#060d20;}.cls-2,.cls-3,.cls-4,.cls-5,.cls-6,.cls-7{fill:none;stroke:#fff;stroke-miterlimit:10;}.cls-2{stroke-width:0.85px;}.cls-3{stroke-width:0.48px;}.cls-4{stroke-width:0.3px;}.cls-6{stroke-width:0.57px;}.cls-7{stroke-width:0.36px;}</style></defs><title>tree_right</title><rect class="cls-1" width="151.71" height="3072"/><ellipse class="cls-2" cx="55.27" cy="627.16" rx="26.56" ry="38.18"/><ellipse class="cls-3" cx="55.27" cy="627.16" rx="15.14" ry="21.77"/><ellipse class="cls-4" cx="54.12" cy="627.24" rx="9.54" ry="13.72"/><ellipse class="cls-2" cx="61.38" cy="1369.42" rx="26.56" ry="38.18"/><ellipse class="cls-3" cx="61.38" cy="1369.42" rx="15.14" ry="21.77"/><ellipse class="cls-4" cx="60.24" cy="1369.49" rx="9.54" ry="13.72"/><ellipse class="cls-2" cx="81.83" cy="255.67" rx="26.56" ry="38.18"/><ellipse class="cls-3" cx="81.83" cy="255.67" rx="15.14" ry="21.77"/><ellipse class="cls-4" cx="80.69" cy="255.74" rx="9.54" ry="13.72"/><ellipse class="cls-5" cx="108.39" cy="1723.19" rx="29.16" ry="48.64"/><ellipse class="cls-6" cx="108.39" cy="1723.19" rx="16.63" ry="27.73"/><ellipse class="cls-7" cx="107.14" cy="1723.28" rx="10.48" ry="17.48"/><ellipse class="cls-5" cx="99.72" cy="1009.11" rx="29.16" ry="48.64"/><ellipse class="cls-6" cx="99.72" cy="1009.11" rx="16.63" ry="27.73"/><ellipse class="cls-7" cx="98.46" cy="1009.2" rx="10.48" ry="17.48"/><ellipse class="cls-2" cx="60.12" cy="2437.63" rx="26.56" ry="38.18"/><ellipse class="cls-3" cx="60.12" cy="2437.63" rx="15.14" ry="21.77"/><ellipse class="cls-4" cx="58.97" cy="2437.71" rx="9.54" ry="13.72"/><ellipse class="cls-2" cx="86.68" cy="2066.14" rx="26.56" ry="38.18"/><ellipse class="cls-3" cx="86.68" cy="2066.14" rx="15.14" ry="21.77"/><ellipse class="cls-4" cx="85.53" cy="2066.21" rx="9.54" ry="13.72"/><ellipse class="cls-5" cx="104.56" cy="2819.58" rx="29.16" ry="48.64"/><ellipse class="cls-6" cx="104.56" cy="2819.58" rx="16.63" ry="27.73"/><ellipse class="cls-7" cx="103.31" cy="2819.67" rx="10.48" ry="17.48"/></svg>