<svg id="Слой_1" data-name="Слой 1" xmlns="http://www.w3.org/2000/svg" viewBox="0 0 1366.74 3073.27"><defs><style>.cls-1{fill:#060d20;}.cls-2,.cls-3,.cls-4,.cls-5,.cls-6,.cls-7,.cls-8{fill:none;stroke-miterlimit:10;}.cls-2,.cls-3,.cls-4,.cls-5,.cls-6,.cls-7{stroke:#fff;}.cls-3{stroke-width:0.57px;}.cls-4{stroke-width:0.36px;}.cls-5{stroke-width:0.85px;}.cls-6{stroke-width:0.48px;}.cls-7{stroke-width:0.3px;}.cls-8{stroke:#666;}</style></defs><title>trees_grass</title><path class="cls-1" d="M202.84,0s-8.32,403,0,573.4,48.27,698.23,39.95,823.67-5,830.77-11.65,868.64-2.73,741.57,12.78,806.29H0V0Z" transform="translate(0.1 1.07)"/><path class="cls-1" d="M1143,3072s28.49-403,20.17-573.4-17.71-687.47-9.39-812.91,10.5-861.15,17.16-899S1201.58,64.72,1186.07,0H1366V3072Z" transform="translate(0.1 1.07)"/><polygon class="cls-1" points="180.63 416.55 233.6 379.75 244.02 427.8 180.63 486.35 180.63 416.55"/><polygon class="cls-1" points="1172.96 957.45 1119.99 920.65 1109.57 968.71 1172.96 1027.25 1172.96 957.45"/><polygon class="cls-1" points="140.58 1781.16 313.46 1744.37 347.47 1792.42 140.58 1850.97 140.58 1781.16"/><polygon class="cls-1" points="1279.25 2654.32 1106.37 2617.53 1072.36 2665.58 1279.25 2724.13 1279.25 2654.32"/><ellipse class="cls-2" cx="109.48" cy="324" rx="29.16" ry="48.64"/><ellipse class="cls-3" cx="109.48" cy="324" rx="16.63" ry="27.73"/><ellipse class="cls-4" cx="108.22" cy="324.09" rx="10.48" ry="17.48"/><ellipse class="cls-5" cx="61.08" cy="952.18" rx="26.56" ry="38.18"/><ellipse class="cls-6" cx="61.08" cy="952.18" rx="15.14" ry="21.77"/><ellipse class="cls-7" cx="59.94" cy="952.26" rx="9.54" ry="13.72"/><ellipse class="cls-5" cx="172.23" cy="1462.58" rx="26.56" ry="38.18"/><ellipse class="cls-6" cx="172.23" cy="1462.58" rx="15.14" ry="21.77"/><ellipse class="cls-7" cx="171.09" cy="1462.65" rx="9.54" ry="13.72"/><ellipse class="cls-5" cx="68.41" cy="2067.54" rx="26.56" ry="38.18"/><ellipse class="cls-6" cx="68.41" cy="2067.54" rx="15.14" ry="21.77"/><ellipse class="cls-7" cx="67.26" cy="2067.62" rx="9.54" ry="13.72"/><ellipse class="cls-5" cx="1219.15" cy="1211.12" rx="26.56" ry="38.18"/><ellipse class="cls-6" cx="1219.15" cy="1211.12" rx="15.14" ry="21.77"/><ellipse class="cls-7" cx="1218" cy="1211.19" rx="9.54" ry="13.72"/><ellipse class="cls-5" cx="1244.14" cy="2089.31" rx="26.56" ry="38.18"/><ellipse class="cls-6" cx="1244.14" cy="2089.31" rx="15.14" ry="21.77"/><ellipse class="cls-7" cx="1243" cy="2089.39" rx="9.54" ry="13.72"/><ellipse class="cls-5" cx="1229" cy="2793.61" rx="26.56" ry="38.18"/><ellipse class="cls-6" cx="1229" cy="2793.61" rx="15.14" ry="21.77"/><ellipse class="cls-7" cx="1227.85" cy="2793.68" rx="9.54" ry="13.72"/><ellipse class="cls-5" cx="122.06" cy="2853.57" rx="26.56" ry="38.18"/><ellipse class="cls-6" cx="122.06" cy="2853.57" rx="15.14" ry="21.77"/><ellipse class="cls-7" cx="120.92" cy="2853.64" rx="9.54" ry="13.72"/><ellipse class="cls-5" cx="1265.85" cy="341.56" rx="26.56" ry="38.18"/><ellipse class="cls-6" cx="1265.85" cy="341.56" rx="15.14" ry="21.77"/><ellipse class="cls-7" cx="1264.7" cy="341.64" rx="9.54" ry="13.72"/><ellipse class="cls-2" cx="1292.41" cy="2484.98" rx="29.16" ry="48.64"/><ellipse class="cls-3" cx="1292.41" cy="2484.98" rx="16.63" ry="27.73"/><ellipse class="cls-4" cx="1291.15" cy="2485.07" rx="10.48" ry="17.48"/><ellipse class="cls-2" cx="1292.41" cy="1554.63" rx="29.16" ry="48.64"/><ellipse class="cls-3" cx="1292.41" cy="1554.63" rx="16.63" ry="27.73"/><ellipse class="cls-4" cx="1291.15" cy="1554.72" rx="10.48" ry="17.48"/><ellipse class="cls-2" cx="145.67" cy="2328.22" rx="29.16" ry="48.64"/><ellipse class="cls-3" cx="145.67" cy="2328.22" rx="16.63" ry="27.73"/><ellipse class="cls-4" cx="144.41" cy="2328.31" rx="10.48" ry="17.48"/><path class="cls-1" d="M290,3072s11.22-115.2-16.83-170.17c0,0,50.49,44.15,48.24,170.17Z" transform="translate(0.1 1.07)"/><path class="cls-1" d="M335.13,3072s0-343.6,70.12-395.88c0,0-70.12,150-41.33,395.88Z" transform="translate(0.1 1.07)"/><path class="cls-1" d="M395.32,3072s-38.17-85.52,9.93-144.85c0,0-26.69,84.64,13.29,144.85Z" transform="translate(0.1 1.07)"/><path class="cls-1" d="M441.18,3072s9.27-91.42-15.44-159.37c0,0,51.47,65.49,45.29,159.37Z" transform="translate(0.1 1.07)"/><path class="cls-1" d="M500,3072s47.11-165.48,44.75-409.77c0,0,26.09,186.07.09,409.77Z" transform="translate(0.1 1.07)"/><path class="cls-1" d="M876.84,3072s11.21-179.84-16.83-265.66c0,0,50.48,68.92,48.24,265.66Z" transform="translate(0.1 1.07)"/><path class="cls-1" d="M922,3072s0-367.65,70.12-423.59c0,0-70.12,160.52-41.33,423.59Z" transform="translate(0.1 1.07)"/><path class="cls-1" d="M982.15,3072s-38.18-85.52,9.93-144.85c0,0-26.7,84.64,13.28,144.85Z" transform="translate(0.1 1.07)"/><path class="cls-1" d="M1028,3072s9.26-91.42-15.44-159.37c0,0,51.47,65.49,45.29,159.37Z" transform="translate(0.1 1.07)"/><path class="cls-1" d="M1086.84,3072s32.33-58.5,30.71-144.85c0,0,17.89,65.77.06,144.85Z" transform="translate(0.1 1.07)"/><path class="cls-1" d="M819.44,3072s-11.22-115.2,16.82-170.17c0,0-50.48,44.15-48.24,170.17Z" transform="translate(0.1 1.07)"/><path class="cls-1" d="M774.31,3072s0-333.78-70.12-384.56c0,0,70.12,145.73,41.33,384.56Z" transform="translate(0.1 1.07)"/><path class="cls-1" d="M714.12,3072s38.18-85.52-9.93-144.85c0,0,26.7,84.64-13.28,144.85Z" transform="translate(0.1 1.07)"/><path class="cls-1" d="M668.26,3072s-9.26-91.42,15.44-159.37c0,0-51.47,65.49-45.29,159.37Z" transform="translate(0.1 1.07)"/><path class="cls-1" d="M609.43,3072s-32.33-58.5-30.71-144.85c0,0-17.89,65.77-.06,144.85Z" transform="translate(0.1 1.07)"/><path class="cls-8" d="M35.27,1S29.31,886.73.39,1079.53" transform="translate(0.1 1.07)"/><path class="cls-8" d="M61.83,1S4.92,2957.49,57.75,3072" transform="translate(0.1 1.07)"/><path class="cls-8" d="M127.46-1s19.16,469.39,81.73,684.64" transform="translate(0.1 1.07)"/><path class="cls-8" d="M96.33-1s44.47,757.39,3,838.12" transform="translate(0.1 1.07)"/><path class="cls-8" d="M164.48,445s2.93,1347.44,70.86,1595.65" transform="translate(0.1 1.07)"/><path class="cls-8" d="M138,3072S124.21,1737.14,39.2,1524.68" transform="translate(0.1 1.07)"/><path class="cls-8" d="M99.36,837.08s53.12,1208.39,12.91,1342.29" transform="translate(0.1 1.07)"/><path class="cls-8" d="M35.27,2179.37s53.07,803,101.38,798.52" transform="translate(0.1 1.07)"/><path class="cls-8" d="M126.56,2529.29s21.54-361.24,85.58-634.62" transform="translate(0.1 1.07)"/><line class="cls-8" x1="164.84" y1="2163.39" x2="203.07" y2="3073.07"/><path class="cls-8" d="M1336.17,0s1.06,951.9,30,1144.7" transform="translate(0.1 1.07)"/><path class="cls-8" d="M1305.17,0s62.88,2957.49,10,3072" transform="translate(0.1 1.07)"/><path class="cls-8" d="M1234.49,0s20.75,610.51-41.82,825.76" transform="translate(0.1 1.07)"/><path class="cls-8" d="M1258.64,0s21.15,927.64,62.59,1008.36" transform="translate(0.1 1.07)"/><path class="cls-8" d="M1185.65,444.83s36.51,1412.73-31.42,1660.94" transform="translate(0.1 1.07)"/><path class="cls-8" d="M1228.44,3072s13.89-1269.69,98.9-1482.15" transform="translate(0.1 1.07)"/><path class="cls-8" d="M1288.33,730.5s-74.27,1380.14-34.06,1514" transform="translate(0.1 1.07)"/><path class="cls-8" d="M1336.17,2239.65S1277.29,3036.41,1229,3032" transform="translate(0.1 1.07)"/><path class="cls-8" d="M1239.47,2589.38s.32-360.53-63.72-633.92" transform="translate(0.1 1.07)"/><line class="cls-8" x1="1207.34" y1="2129.49" x2="1165.03" y2="3073.07"/></svg>